<ttFont>
          <CharString index="0">
            -107 callgsubr
            endchar
          </CharString>
          <CharString index="1">
            145 hlineto
            -95 callgsubr
            -220 -93 callgsubr
            endchar
          </CharString>
          <CharString index="2">
            rmoveto
            167 105 75 101 88 -66 37 -120 hvcurveto
            -83 hlineto
            -56 -20 14 25 19 7 10 13 11 hvcurveto
            -7 22 21 -3 19 hhcurveto
            107 86 54 113 28 -9 27 -12 16 hvcurveto
            83 100 -179 hlineto
            7 -22 -26 5 -28 hhcurveto
            -105 -96 -62 -117 -58 31 -46 35 -25 hvcurveto
            -4 vlineto
            -31 -21 -24 -35 -36 vvcurveto
            -41 19 -26 26 -17 vhcurveto
            -4 vlineto
            -46 -26 -25 -34 -42 vvcurveto
            -87 91 -39 116 vhcurveto
            9 453 rmoveto
            -42 -32 31 57 56 32 30 42 42 31 -30 -56 -57 -32 -31 -41 hvcurveto
            12 -367 rmoveto
            -70 -45 22 40 19 10 18 21 17 hvcurveto
            -5 17 20 -2 31 hhcurveto
            57 hlineto
            51 28 -8 -34 -37 -49 -30 -71 hvcurveto
            endchar
          </CharString>
          <CharString index="3">
            -105 callgsubr
            endchar
          </CharString>
          <CharString index="4">
            rmoveto
            125 114 95 164 165 -114 95 -125 -124 -115 5 callsubr
            115 -95 124 hvcurveto
            111 vmoveto
            -64 -35 58 90 90 35 59 64 65 34 -59 -90 -90 -34 -58 -65 hvcurveto
            return
          </CharString>
          <CharString index="5">
            rmoveto
            -102 callgsubr
            return
          </CharString>
          <CharString index="6">
            rmoveto
            -1 167 11 callsubr
            2 -175 1 -163 -64 -111 -200 -13 rlinecurve
            -14 115 149 51 41 95 1 137 rlinecurve
            1 63 rlineto
            -137 -66 hlineto
            -101 -11 -51 -56 -28 vhcurveto
            -29 247 14 callsubr
            75 -581 366 -9 160 147 -2 276 rlinecurve
            return
          </CharString>
          <CharString index="7">
            -56 438 151 rmoveto
            -36 -27 -29 -21 -40 hhcurveto
            -60 -42 45 80 -17 hvcurveto
            179 70 -188 hlineto
            -1 10 0 10 10 vvcurveto
            23 229 70 -221 vlineto
            83 17 41 47 62 hhcurveto
            36 27 -19 -27 26 hvcurveto
            76 74 rlineto
            49 -42 -59 29 -60 hhcurveto
            -133 -99 -87 -150 -29 hvcurveto
            -63 -5 rlineto
            -64 55 vlineto
            -1 -9 0 -9 -9 vvcurveto
            -9 0 -10 1 -9 vhcurveto
            -55 -4 rlineto
            -64 62 vlineto
            -150 29 97 -81 125 hhcurveto
            72 60 33 60 48 hvcurveto
            -76 70 rlineto
            endchar
          </CharString>
          <CharString index="8">
            53 callsubr
            -95 callsubr
            214 hmoveto
            -95 callsubr
            return
          </CharString>
          <CharString index="9">
            -43 callgsubr
            -89 callgsubr
            hvcurveto
            return
          </CharString>
          <CharString index="10">
            48 36 38 50 50 -36 38 -48 -48 -36 -38 -50 -50 36 -38 48 hvcurveto
            return
          </CharString>
          <CharString index="11">
            703 rmoveto
            39 28 52 callgsubr
            -28 29 -39 -39 -27 54 callsubr
            27 -28 39 hvcurveto
            220 hmoveto
            39 27 52 callgsubr
            -27 29 -39 -39 -28 54 callsubr
            28 -28 39 hvcurveto
            return
          </CharString>
          <CharString index="12">
            40 28 30 38 38 -28 30 -40 -40 -28 -30 -38 -38 28 -30 40 hvcurveto
            return
          </CharString>
          <CharString index="13">
            rmoveto
            68 47 32 50 42 hvcurveto
            3 hlineto
            10 -70 rlineto
            112 495 -137 -331 hlineto
            -42 -31 -25 -17 -39 hhcurveto
            -46 -20 25 74 hvcurveto
            291 -137 -308 vlineto
            -124 46 -75 107 vhcurveto
            endchar
          </CharString>
          <CharString index="14">
            rmoveto
            130 70 70 88 91 -72 34 -64 24 hvcurveto
            -52 19 -48 13 34 vvcurveto
            26 20 18 42 36 35 -17 -25 35 vhcurveto
            61 82 rlineto
            32 -41 -56 30 -74 hhcurveto
            -113 -73 -63 -90 -82 72 -39 62 -24 hvcurveto
            51 -20 51 -16 -35 vvcurveto
            -29 -21 -19 -47 -45 -41 19 34 -45 vhcurveto
            -62 -86 rlineto
            -40 50 73 -29 66 hhcurveto
            return
          </CharString>
          <CharString index="15">
            -56 261 -12 rmoveto
            132 89 76 99 85 -50 48 -60 33 hvcurveto
            4 vlineto
            43 29 41 51 61 vvcurveto
            105 -75 69 -116 -115 -84 -67 -107 -66 37 -47 49 -36 vhcurveto
            -4 vlineto
            -60 -32 -51 -49 -77 vvcurveto
            -103 94 -72 126 vhcurveto
            40 378 rmoveto
            -66 27 -49 26 55 vvcurveto
            51 34 27 42 52 31 -35 -52 -35 -16 -33 -28 -31 vhcurveto
            -37 -282 rmoveto
            -57 -47 36 58 42 24 38 31 27 hvcurveto
            82 -34 59 -23 -60 vvcurveto
            -55 -39 -29 -53 vhcurveto
            endchar
          </CharString>
          <CharString index="16">
            rmoveto
            90 78 35 44 45 hvcurveto
            296 -235 -112 113 -122 vlineto
            -14 -18 -30 -8 -29 hhcurveto
            -126 -63 82 139 136 73 82 106 57 36 -23 -30 33 hvcurveto
            72 88 rlineto
            43 -43 -66 41 -94 hhcurveto
            -174 -141 -126 -216 -218 137 -117 179 hvcurveto
            endchar
          </CharString>
          <CharString index="17">
            rmoveto
            -97 callsubr
            return
          </CharString>
          <CharString index="18">
            -223 -99 callgsubr
          </CharString>
          <CharString index="19">
            -56 243 648 rmoveto
            -113 -95 -81 -131 -134 79 -62 109 42 55 26 45 35 hvcurveto
            -158 -6 -59 -54 -73 hhcurveto
            -38 -40 21 25 -22 hvcurveto
            -72 -82 rlineto
            -40 39 60 -35 81 hhcurveto
            133 122 106 240 220 -114 94 -123 hvcurveto
            6 -311 rmoveto
            -53 -36 29 70 74 39 35 46 50 43 -37 -104 13 hvcurveto
            -49 -30 -38 -18 -34 hhcurveto
            endchar
          </CharString>
          <CharString index="20">
            31 callsubr
            -19 -59 callsubr
            19 -12 16 -21 hvcurveto
            return
          </CharString>
          <CharString index="21">
            115 -277 165 227 115 -227 143 267 115 -404 -653 return
          </CharString>
          <CharString index="22">
            315 424 -169 rmoveto
            71 64 15 33 60 hvcurveto
            -30 75 rlineto
            -23 -42 -59 -17 -53 hhcurveto
            -158 -135 98 197 226 170 147 172 194 80 -126 -146 -113 -61 -72 -61 -46 -16 30 61 15 hvcurveto
            44 217 rlineto
            -84 hlineto
            -14 -41 rlineto
            -2 hlineto
            35 -17 -27 14 -33 hhcurveto
            -115 -85 -123 -120 -91 53 -58 77 41 51 28 39 28 hvcurveto
            2 hlineto
            -49 10 46 -27 58 hhcurveto
            102 121 92 181 208 -136 145 -214 -242 -204 -183 -278 -252 176 -122 199 hvcurveto
            -9 305 rmoveto
            -34 -22 22 48 63 39 84 62 22 16 -10 -21 12 hvcurveto
            -25 -139 rlineto
            -34 -27 -21 -13 -22 hhcurveto
            endchar
          </CharString>
          <CharString index="23">
            45 32 30 43 43 -32 30 -45 return
          </CharString>
          <CharString index="24">
            rmoveto
            45 35 9 9 27 hvcurveto
            -22 100 rlineto
            -5 -14 -18 -5 -17 hhcurveto
            -41 -25 24 57 hvcurveto
            210 121 108 -121 132 -113 vlineto
            -16 -132 -76 -6 rlineto
            -102 69 -211 vlineto
            -112 46 -76 120 vhcurveto
            return
          </CharString>
          <CharString index="25">
            136 -70 101 -138 -118 -114 -99 -161 -163 109 -96 139 return
          </CharString>
          <CharString index="26">
            rmoveto
            113 53 66 120 45 hvcurveto
            174 506 42 callsubr
            -65 -223 -12 -46 -12 -47 -11 -47 20 callgsubr
            -14 48 -12 48 -15 44 -75 223 rcurveline
            -138 hlineto
            192 -484 -8 -28 rlineto
            -42 -14 -27 -30 -49 hhcurveto
            -11 -14 4 3 -9 hvcurveto
            -25 -105 rlineto
            -6 20 19 -4 30 hhcurveto
            endchar
          </CharString>
          <CharString index="27">
            -12 -75 callsubr
            -49 -35 -36 -38 vhcurveto
            6 92 rlineto
            175 -137 -703 vlineto
            return
          </CharString>
          <CharString index="28">
            79 640 99 rmoveto
            -34 5 -39 16 -41 23 50 69 35 74 25 80 rrcurveto
            -125 hlineto
            -17 -63 -27 -54 -34 -45 -51 38 -48 44 -38 47 rrcurveto
            70 47 69 54 86 vvcurveto
            87 -60 58 -95 -106 -68 -77 -91 -43 15 -47 26 -49 vhcurveto
            -65 -41 -56 -53 -90 vvcurveto
            -101 76 -85 139 81 66 26 42 55 vhcurveto
            55 -34 57 -23 52 -11 33 111 rcurveline
            -421 398 rmoveto
            47 27 30 36 33 15 -22 -32 -46 -38 -31 -50 -29 vhcurveto
            -15 29 -8 28 26 vvcurveto
            -63 -315 rmoveto
            33 20 27 30 26 vhcurveto
            40 -52 49 -50 53 -43 rrcurveto
            -19 -29 -31 -11 -30 hhcurveto
            -60 -42 36 53 hvcurveto
            endchar
          </CharString>
          <CharString index="29">
            170 375 -9 rmoveto
            176 152 128 206 205 -152 125 -176 -177 -152 -124 -206 -206 152 -128 177 hvcurveto
            -1 58 rmoveto
            -148 -116 110 166 166 116 107 148 148 116 -107 -166 -166 -116 -110 -148 hvcurveto
            12 78 rmoveto
            53 41 22 31 38 hvcurveto
            -45 64 rlineto
            -21 -26 -23 -15 -35 hhcurveto
            -58 -38 45 71 62 36 49 65 29 20 -13 -23 22 hvcurveto
            52 58 rlineto
            32 -32 -38 27 -61 hhcurveto
            -100 -92 -75 -117 -122 82 -75 110 hvcurveto
            endchar
          </CharString>
          <CharString index="30">
            212 -119 124 -174 -39 callsubr
            return
          </CharString>
          <CharString index="31">
            -12 rmoveto
            -59 callgsubr
            -354 -677 rlineto
            endchar
          </CharString>
          <CharString index="32">
            67 hmoveto
            -70 callsubr
            return
          </CharString>
          <CharString index="33">
            -56 262 -12 rmoveto
            135 88 117 216 215 -88 112 -135 -135 -89 -112 -215 -216 89 -117 135 hvcurveto
            -1 106 rmoveto
            -53 -41 51 176 175 41 46 53 54 40 -46 -175 -176 -40 -51 -54 hvcurveto
            endchar
          </CharString>
          <CharString index="34">
            5 hlineto
            124 -96 52 49 -109 133 rlineto
            -139 hlineto
            -109 -133 52 -49 return
          </CharString>
          <CharString index="35">
            -203 253 -12 -83 callsubr
            return
          </CharString>
          <CharString index="36">
            52 41 -112 153 112 153 -52 42 -135 -146 rlineto
            -97 vlineto
            135 -146 rlineto
            return
          </CharString>
          <CharString index="37">
            26 callgsubr
            -31 callgsubr
            -291 136 308 11 callgsubr
            -67 return
          </CharString>
          <CharString index="38">
            4 callsubr
            hvcurveto
            35 112 -62 callsubr
            return
          </CharString>
          <CharString index="39">
            53 79 hmoveto
            189 hlineto
            -17 callgsubr
            -181 31 callgsubr
            111 rmoveto
            431 36 vlineto
            -4 callgsubr
            -36 hlineto
            return
          </CharString>
          <CharString index="40">
            -56 414 556 rmoveto
            21 15 -7 -5 13 hvcurveto
            25 103 rlineto
            9 -19 -40 9 -25 hhcurveto
            -128 -54 -62 -145 -16 hvcurveto
            -5 -45 rlineto
            -14 hlineto
            -74 -5 rlineto
            -95 77 vlineto
            -18 -158 -12 -111 -18 -31 -50 -2 rlinecurve
            -16 1 -15 2 -14 6 -19 -101 rcurveline
            15 -9 31 -6 38 -1 rrcurveto
            132 39 94 120 14 hvcurveto
            23 196 rlineto
            118 100 -107 hlineto
            7 56 rlineto
            51 6 23 36 47 hhcurveto
            endchar
          </CharString>
          <CharString index="41">
            67 50 44 97 5 hvcurveto
            -88 6 rlineto
            -37 -5 -14 -14 -20 -35 -33 59 -72 hhcurveto
            -67 -50 -44 -96 -5 hvcurveto
            88 -7 rlineto
            38 4 15 14 20 return
          </CharString>
          <CharString index="42">
            688 rmoveto
            105 85 rlineto
            -56 callsubr
            rlineto
            return
          </CharString>
          <CharString index="43">
            104 568 620 -40 callgsubr
            71 -91 callgsubr
            return
          </CharString>
          <CharString index="44">
            -56 228 119 rmoveto
            33 37 14 33 52 vvcurveto
            11 -1 11 -1 11 vhcurveto
            131 85 -149 hlineto
            -7 27 -6 26 27 vvcurveto
            65 35 33 56 33 26 -16 -28 23 vhcurveto
            75 74 rlineto
            51 -43 -53 30 -74 hhcurveto
            -122 -87 -78 -124 -28 8 -29 10 -30 hvcurveto
            -9 hlineto
            -68 -5 rlineto
            -80 100 vlineto
            2 -11 1 -10 -11 vvcurveto
            -72 -45 -57 -61 -29 vhcurveto
            -84 441 115 -262 4 vlineto
            endchar
          </CharString>
          <CharString index="45">
            rmoveto
            -62 -36 48 101 97 45 49 53 29 30 -9 -26 29 hvcurveto
            -212 vlineto
            -34 -27 -28 -14 -33 hhcurveto
            return
          </CharString>
          <CharString index="46">
            -56 482 117 rmoveto
            -56 86 -21 -17 -26 -16 -30 -4 rlinecurve
            284 vlineto
            21 -2 21 -10 20 -18 63 84 rcurveline
            -30 30 -43 22 -52 4 rrcurveto
            95 -76 -99 vlineto
            -122 -20 -91 -88 -140 vvcurveto
            -145 84 -90 129 -16 vhcurveto
            -97 76 96 vlineto
            46 7 48 20 39 34 rrcurveto
            -289 191 rmoveto
            64 27 48 53 20 vhcurveto
            -265 vlineto
            -52 20 -28 48 65 vvcurveto
            endchar
          </CharString>
          <CharString index="47">
            683 rmoveto
            179 118 -17 callsubr
            rlineto
            return
          </CharString>
          <CharString index="48">
            -8 callsubr
            21 12 16 19 return
          </CharString>
          <CharString index="49">
            -241 234 -152 rmoveto
            60 73 -20 hlineto
            -44 -12 16 57 hvcurveto
            55 4 50 62 vvcurveto
            73 -23 30 -49 12 vhcurveto
            4 vlineto
            49 12 23 30 74 62 -4 49 55 vvcurveto
            57 12 16 44 vhcurveto
            20 73 -60 hlineto
            -87 -39 -33 -108 hvcurveto
            -71 9 -39 -64 vvcurveto
            -36 -20 -37 -66 -1 vhcurveto
            -81 vlineto
            66 -2 20 -37 -36 -64 -9 -39 -71 vvcurveto
            -108 39 -33 87 vhcurveto
            endchar
          </CharString>
          <CharString index="50">
            -40 67 hmoveto
            134 123 hlineto
            67 77 117 -200 rlineto
            148 hlineto
            -187 292 172 203 rlineto
            -148 hlineto
            -166 -207 rlineto
            -3 415 -134 -703 hlineto
            return
          </CharString>
          <CharString index="51">
            4 hlineto
            105 -85 59 37 -92 111 rlineto
            -148 hlineto
            -92 -111 59 -37 return
          </CharString>
          <CharString index="52">
            695 rmoveto
            -66 callsubr
            35 32 -60 73 hhcurveto
            return
          </CharString>
          <CharString index="53">
            16 callgsubr
            171 43 callgsubr
            -11 8 134 -8 134 158 -11 -47 callsubr
            11 -8 -134 8 -134 -158 11 48 callsubr
            -171 rlineto
            endchar
          </CharString>
          <CharString index="54">
            63 601 290 rmoveto
            195 -2 -79 96 -140 hhcurveto
            -68 -59 -43 -81 -28 hvcurveto
            -40 114 rlineto
            -150 hlineto
            80 -186 -70 -385 50 callsubr
            62 378 rlineto
            55 9 38 34 53 hhcurveto
            71 39 -51 -126 2 hvcurveto
            1 -141 -42 -75 -145 33 -14 -108 rcurveline
            215 -51 123 122 -1 220 rrcurveto
            return
          </CharString>
          <CharString index="55">
            106 58 rmoveto
            -71 callgsubr
            return
          </CharString>
          <CharString index="56">
            469 115 -300 hlineto
            298 455 rlineto
            83 -439 -115 270 vlineto
            -298 -455 rlineto
            -83 vlineto
            return
          </CharString>
          <CharString index="57">
            -122 242 331 -90 callsubr
            -13 -519 rmoveto
            77 64 37 53 47 hvcurveto
            -76 69 rlineto
            -29 -28 -29 -19 -38 hhcurveto
            -43 -29 25 43 81 149 57 -21 140 hvcurveto
            -119 hlineto
            12 -122 -152 -40 -125 vvcurveto
            -115 80 -55 106 vhcurveto
            endchar
          </CharString>
          <CharString index="58">
            -122 155 226 rmoveto
            119 hlineto
            -12 122 152 40 125 vvcurveto
            115 -80 54 -106 -77 -65 -37 -52 -46 vhcurveto
            76 -69 rlineto
            28 28 29 20 38 hhcurveto
            43 29 -26 -43 -80 -149 -57 21 -140 hvcurveto
            60 -238 -75 callgsubr
          </CharString>
          <CharString index="59">
            -6 callsubr
            227 hmoveto
            -87 callgsubr
          </CharString>
          <CharString index="60">
            18 callgsubr
            -8 8 171 rlineto
            -110 hlineto
            8 -171 -158 8 17 callsubr
            return
          </CharString>
          <CharString index="61">
            -9 320 -12 rmoveto
            108 101 98 170 152 -73 99 -121 -48 -48 -23 -34 -39 hvcurveto
            4 78 rlineto
            175 -137 -703 107 vlineto
            12 53 rlineto
            3 hlineto
            -42 40 47 -23 44 hhcurveto
            -30 112 rmoveto
            -26 -31 9 26 -29 -27 callgsubr
            return
          </CharString>
          <CharString index="62">
            573 rmoveto
            68 67 -26 callsubr
            rlineto
            return
          </CharString>
          <CharString index="63">
            rmoveto
            -3 -3 0 -1 -3 hvcurveto
            59 29 37 59 30 vhcurveto
            -36 callsubr
            vhcurveto
            endchar
          </CharString>
          <CharString index="64">
            96 92 363 rmoveto
            90 231 89 82 -268 -82 89 -231 hlineto
            223 hmoveto
            83 102 hlineto
            -10 114 36 callsubr
            59 -170 rlineto
            64 hlineto
            59 170 36 callsubr
            -10 -114 rlineto
            -102 83 313 -103 vlineto
            -40 -101 -23 -69 35 callsubr
            -23 69 -40 101 rlineto
            -103 -313 hlineto
            endchar
          </CharString>
          <CharString index="65">
            53 callsubr
            -92 callgsubr
            return
          </CharString>
          <CharString index="66">
            21 12 17 19 return
          </CharString>
          <CharString index="67">
            26 557 330 rmoveto
            -1 33 rlineto
            128 -4 -73 80 -132 hhcurveto
            -307 hlineto
            14 -108 55 -473 276 9 180 84 -8 247 rlinecurve
            -322 -212 rmoveto
            -37 345 rlineto
            138 hlineto
            48 30 -39 -61 hvcurveto
            -30 vlineto
            4 -139 -39 -65 -144 -11 rrcurveto
            return
          </CharString>
          <CharString index="68">
            -174 -120 -123 -213 return
          </CharString>
          <CharString index="69">
            11 256 -1 rmoveto
            204 2 71 145 9 181 11 151 rcurveline
            5 93 rlineto
            -505 -108 350 hlineto
            -13 -174 -8 -133 -48 -41 -87 -8 rlinecurve
            11 -108 rlineto
            -213 -199 rmoveto
            145 548 -125 hlineto
            -20 -69 rlineto
            -479 vlineto
            return
          </CharString>
          <CharString index="70">
            12 107 -10 rmoveto
            285 12 182 98 -9 244 -1 28 rcurveline
            -4 136 -95 65 -116 6 -61 3 rcurveline
            -11 -111 49 -3 rlineto
            69 -4 29 -52 -55 vvcurveto
            -31 vlineto
            2 -121 -48 -73 -144 -14 -49 453 rcurveline
            -145 hlineto
            67 -581 rlineto
            return
          </CharString>
          <CharString index="71">
            -31 60 rlineto
            -92 -46 -45 -70 -92 vvcurveto
            -78 31 -46 58 43 30 30 48 43 -33 26 -40 return
          </CharString>
          <CharString index="72">
            -155 385 hmoveto
            -32 224 rlineto
            177 vlineto
            92 -38 62 -82 12 vhcurveto
            -118 16 -18 -106 63 -10 rlineto
            35 -5 13 -16 -49 vvcurveto
            -157 vlineto
            -33 -64 -66 -45 -88 -36 53 -114 rcurveline
            77 26 44 45 34 58 19 -110 rcurveline
            137 hlineto
            return
          </CharString>
          <CharString index="73">
            683 rmoveto
            60 69 -14 callsubr
            rlineto
            return
          </CharString>
          <CharString index="74">
            rmoveto
            -35 callgsubr
          </CharString>
          <CharString index="75">
            572 -102 callsubr
            return
          </CharString>
          <CharString index="76">
            174 119 129 212 return
          </CharString>
          <CharString index="77">
            -15 300 40 callsubr
            -219 hlineto
            -37 -168 -9 -111 12 -64 146 -4 rlinecurve
            26 87 -48 5 -3 31 5 49 rlinecurve
            13 67 rlineto
            75 hlineto
            77 27 -60 -80 hvcurveto
            -523 145 516 vlineto
            154 -69 101 -141 vhcurveto
            return
          </CharString>
          <CharString index="78">
            rmoveto
            1 callgsubr
            -41 callsubr
            vhcurveto
            endchar
          </CharString>
          <CharString index="79">
            75 hlineto
            27 194 5 126 rlineto
            -139 hlineto
            5 -126 27 -194 rlineto
            return
          </CharString>
          <CharString index="80">
            -241 205 -179 rmoveto
            86 36 rlineto
            -74 129 -33 149 143 vvcurveto
            144 33 148 74 129 vhcurveto
            -86 36 rlineto
            -83 -137 -49 -144 -176 vvcurveto
            -176 49 -144 83 -137 vhcurveto
            endchar
          </CharString>
          <CharString index="81">
            -152 179 -93 -90 177 -156 return
          </CharString>
          <CharString index="82">
            56 30 -17 rmoveto
            153 14 68 50 154 vvcurveto
            262 119 vlineto
            39 callgsubr
            -390 145 383 vlineto
            18 callsubr
            -302 -389 hlineto
            -67 -13 -26 -77 -8 vhcurveto
            13 -98 rlineto
            return
          </CharString>
          <CharString index="83">
            -207 186 371 rmoveto
            84 76 63 108 109 -76 64 -84 -85 -76 -64 -109 -108 76 -63 85 hvcurveto
            77 vmoveto
            -42 -20 37 57 58 20 38 42 41 20 -38 -58 -57 -20 -37 -41 hvcurveto
            endchar
          </CharString>
          <CharString index="84">
            16 callgsubr
            527 158 -8 -47 callsubr
            8 -8 -527 rlineto
            endchar
          </CharString>
          <CharString index="85">
            -94 29 hmoveto
            199 hlineto
            145 74 101 155 hvcurveto
            59 vlineto
            155 -74 101 -145 vhcurveto
            -199 -108 160 hlineto
            81 32 -60 -80 hvcurveto
            -75 vlineto
            -80 -32 -60 -81 vhcurveto
            -160 46 callgsubr
            return
          </CharString>
          <CharString index="86">
            108 367 rmoveto
            -28 callsubr
            return
          </CharString>
          <CharString index="87">
            -65 181 hmoveto
            157 hlineto
            164 495 42 callsubr
            -69 -241 -13 -49 -14 -51 -13 -51 20 callgsubr
            -13 51 -13 51 -13 49 -69 241 rcurveline
            -138 hlineto
            169 -495 rlineto
            return
          </CharString>
          <CharString index="88">
            -128 147 360 rmoveto
            79 89 78 -89 58 43 -59 101 107 48 -23 68 -113 -25 -12 117 rlineto
            -73 hlineto
            -12 -116 -114 24 -22 -68 106 -48 -58 -101 58 -43 rlineto
            endchar
          </CharString>
          <CharString index="89">
            -35 vlineto
            -66 -5 rlineto
            -102 66 -387 137 387 91 108 -91 37 vlineto
            53 21 22 37 return
          </CharString>
          <CharString index="90">
            -73 89 -166 -138 60 -69 return
          </CharString>
          <CharString index="91">
            -287 148 167 rmoveto
            -87 callgsubr
          </CharString>
          <CharString index="92">
            -56 51 276 rmoveto
            113 hlineto
            49 136 46 135 36 callsubr
            46 -135 49 -136 rlineto
            113 hlineto
            -154 394 rlineto
            -111 hlineto
            -155 -394 rlineto
            endchar
          </CharString>
          <CharString index="93">
            -166 138 -73 -89 179 -118 return
          </CharString>
          <CharString index="94">
            -20 523 40 callsubr
            -143 hlineto
            -82 -201 -113 201 11 callsubr
            262 -463 rlineto
            -272 -108 478 hlineto
            -133 234 148 337 rlineto
            return
          </CharString>
          <CharString index="95">
            -509 rmoveto
            -58 234 -124 hlineto
            -145 -250 rlineto
            -50 179 -90 90 90 58 66 vlineto
            -233 hmoveto
            87 162 36 callsubr
            -6 -116 rlineto
            -46 -85 vlineto
            endchar
          </CharString>
          <CharString index="96">
            -137 12 callsubr
            return
          </CharString>
          <CharString index="97">
            -26 208 45 callsubr
            538 182 115 -502 -115 183 -538 hlineto
            return
          </CharString>
          <CharString index="98">
            -36 446 108 rmoveto
            275 vlineto
            18 callsubr
            -236 -108 197 hlineto
            39 callgsubr
            -282 -264 -108 475 108 -66 vlineto
            return
          </CharString>
          <CharString index="99">
            -19 14 -16 20 return
          </CharString>
          <CharString index="100">
            -198 38 hmoveto
            291 401 hlineto
            92 -44 63 -82 11 vhcurveto
            -126 16 -18 -106 71 -10 rlineto
            34 -5 20 -14 -51 vvcurveto
            -289 -146 -108 vlineto
            return
          </CharString>
          <CharString index="101">
            rmoveto
            -94 callgsubr
            return
          </CharString>
          <CharString index="102">
            vmoveto
            -3 callsubr
          </CharString>
          <CharString index="103">
            -178 112 hmoveto
            144 346 hlineto
            36 5 47 16 34 vhcurveto
            89 108 -331 -108 105 hlineto
            -17 25 callgsubr
            return
          </CharString>
          <CharString index="104">
            -92 callgsubr
            endchar
          </CharString>
          <CharString index="105">
            -81 161 40 callsubr
            146 -130 -254 290 vlineto
            -180 -463 50 callsubr
            179 452 rlineto
            119 -304 vlineto
            return
          </CharString>
          <CharString index="106">
            52 callsubr
            -18 -59 callsubr
            18 -12 18 -21 hvcurveto
            return
          </CharString>
          <CharString index="107">
            hmoveto
            144 4 callgsubr
            return
          </CharString>
          <CharString index="108">
            455 97 -455 -97 hlineto
            return
          </CharString>
          <CharString index="109">
            223 288 rmoveto
            -26 -30 9 26 -30 21 callsubr
          </CharString>
          <CharString index="110">
            rlineto
            60 -8 16 -14 -21 vvcurveto
            -29 -24 -12 -79 -4 vhcurveto
            10 -56 rlineto
            return
          </CharString>
          <CharString index="111">
            -98 -162 -162 80 -97 123 return
          </CharString>
          <CharString index="112">
            -95 -165 -164 return
          </CharString>
          <CharString index="113">
            261 -71 rmoveto
            31 callsubr
            -19 -8 callsubr
            20 13 16 19 19 -13 16 -20 hvcurveto
            -65 -14 37 callgsubr
            return
          </CharString>
          <CharString index="114">
            hmoveto
            9 callgsubr
          </CharString>
          <CharString index="115">
            -11 callsubr
            endchar
          </CharString>
          <CharString index="116">
            -71 callgsubr
            endchar
          </CharString>
          <CharString index="117">
            -241 169 127 rmoveto
            72 57 58 78 78 -57 58 -72 -72 -57 -58 -78 -78 57 -58 72 hvcurveto
            endchar
          </CharString>
          <CharString index="118">
            rlineto
            -145 hlineto
            return
          </CharString>
          <CharString index="119">
            -653 hlineto
            return
          </CharString>
          <CharString index="120">
            39 hlineto
            65 -88 rmoveto
            52 callsubr
            -18 -8 callsubr
            20 13 16 19 18 -13 18 -20 hvcurveto
            endchar
          </CharString>
          <CharString index="121">
            rlineto
            -137 hlineto
            return
          </CharString>
          <CharString index="122">
            hlineto
            43 19 callgsubr
            -390 vlineto
            return
          </CharString>
          <CharString index="123">
            -238 12 -160 rmoveto
            90 hlineto
            212 870 rlineto
            -90 hlineto
            -212 -870 rlineto
            endchar
          </CharString>
          <CharString index="124">
            rlineto
            -110 vlineto
            158 return
          </CharString>
          <CharString index="125">
            136 -73 52 -100 vhcurveto
            return
          </CharString>
          <CharString index="126">
            hlineto
            3 12 3 return
          </CharString>
          <CharString index="127">
            -241 88 -152 rmoveto
            206 73 -104 714 104 73 -206 -860 hlineto
            endchar
          </CharString>
          <CharString index="128">
            -27 callgsubr
            endchar
          </CharString>
          <CharString index="129">
            703 rmoveto
            47 34 31 43 42 -34 31 -47 -46 -34 -31 -42 -43 34 -31 46 hvcurveto
            return
          </CharString>
          <CharString index="130">
            rmoveto
            -83 callgsubr
            -84 callsubr
            hvcurveto
            endchar
          </CharString>
          <CharString index="131">
            52 callsubr
            -17 -43 callgsubr
            return
          </CharString>
          <CharString index="132">
            -56 -13 -26 -41 -14 -13 3 4 return
          </CharString>
          <CharString index="133">
            32 callgsubr
            26 -6 39 hhcurveto
            return
          </CharString>
          <CharString index="134">
            -97 callsubr
            endchar
          </CharString>
          <CharString index="135">
            rmoveto
            44 33 30 43 43 -33 30 -44 -43 -34 -30 -43 -43 34 -30 43 hvcurveto
            return
          </CharString>
          <CharString index="136">
            -137 -12 -216 rrcurveto
            endchar
          </CharString>
          <CharString index="137">
            34 callsubr
            2 501 14 callsubr
            -1 -505 rlineto
            return
          </CharString>
          <CharString index="138">
            -20 -14 -16 return
          </CharString>
          <CharString index="139">
            39 767 rmoveto
            34 callgsubr
            63 -63 rlineto
            return
          </CharString>
          <CharString index="140">
            -99 43 209 rmoveto
            394 88 -394 -88 hlineto
            endchar
          </CharString>
          <CharString index="141">
            129 41 87 107 hvcurveto
            return
          </CharString>
          <CharString index="142">
            rlineto
            -4 hlineto
            return
          </CharString>
          <CharString index="143">
            rlineto
            4 hlineto
            return
          </CharString>
          <CharString index="144">
            79 45 callsubr
            return
          </CharString>
          <CharString index="145">
            31 23 5 6 15 return
          </CharString>
          <CharString index="146">
            hlineto
            147 return
          </CharString>
          <CharString index="147">
            571 rmoveto
            return
          </CharString>
          <CharString index="148">
            hlineto
            139 114 67 151 156 return
          </CharString>
          <CharString index="149">
            rlineto
            -131 hlineto
            return
          </CharString>
          <CharString index="150">
            -200 rmoveto
            34 callsubr
            return
          </CharString>
          <CharString index="151">
            hhcurveto
            108 101 98 169 153 return
          </CharString>
          <CharString index="152">
            hmoveto
            137 return
          </CharString>
          <CharString index="153">
            -193 hlineto
            return
          </CharString>
          <CharString index="154">
            -24 -19 17 29 27 19 18 24 return
          </CharString>
          <CharString index="155">
            17 callsubr
            8 -8 return
          </CharString>
          <CharString index="156">
            -16 22 24 17 16 return
          </CharString>
          <CharString index="157">
            rlineto
            145 hlineto
            return
          </CharString>
          <CharString index="158">
            rlineto
            -113 vlineto
            return
          </CharString>
          <CharString index="159">
            -20 -14 -18 return
          </CharString>
          <CharString index="160">
            572 rmoveto
            return
          </CharString>
          <CharString index="161">
            -29 -38 -38 return
          </CharString>
        <CharString name=".notdef">
          105 81 hmoveto
          522 660 -522 -660 hlineto
          259 410 rmoveto
          -44 95 -37 69 rlineto
          166 hlineto
          -37 -69 -44 -95 35 callsubr
          -166 -262 rmoveto
          386 vlineto
          100 -194 -100 -192 rlineto
          335 hmoveto
          -100 192 100 194 rlineto
          -386 vlineto
          -257 -62 rmoveto
          45 86 43 99 36 callsubr
          43 -99 44 -86 rlineto
          -179 hlineto
          endchar
        </CharString>
        <CharString name="A">
          -11 428 hmoveto
          -106 callsubr
        </CharString>
        <CharString name="AE">
          263 526 115 rmoveto
          165 214 115 -214 143 254 115 -475 vlineto
          -315 -653 rlineto
          144 hlineto
          73 156 rlineto
          182 -156 401 115 -264 hlineto
          -270 147 rmoveto
          45 97 28 60 27 65 29 65 rlinecurve
          4 -287 -133 hlineto
          endchar
        </CharString>
        <CharString name="Aacute">
          -11 448 801 rmoveto
          -17 callsubr
          179 118 rlineto
          -20 -801 -103 callgsubr
        </CharString>
        <CharString name="Abreve">
          -11 280 -66 callgsubr
          148 -699 -103 callgsubr
        </CharString>
        <CharString name="Acircumflex">
          -11 279 773 rmoveto
          -56 callsubr
          105 85 rlineto
          149 -773 -103 callgsubr
        </CharString>
        <CharString name="Adieresis">
          -11 171 -96 callsubr
          37 -703 -103 callgsubr
        </CharString>
        <CharString name="Agrave">
          -11 353 752 rmoveto
          -14 callsubr
          60 69 rlineto
          75 -752 -103 callgsubr
        </CharString>
        <CharString name="Amacron">
          -11 429 812 rmoveto
          -297 -88 297 88 hlineto
          -1 -812 -103 callgsubr
        </CharString>
        <CharString name="Aring">
          -11 281 697 rmoveto
          29 callgsubr
          143 rmoveto
          48 callgsubr
          47 callsubr
          hvcurveto
          148 -840 -103 callgsubr
        </CharString>
        <CharString name="Atilde">
          -11 213 755 rmoveto
          35 32 -60 73 hhcurveto
          -66 callsubr
          hhcurveto
          215 -755 -103 callgsubr
        </CharString>
        <CharString name="B">
          -52 callgsubr
          endchar
        </CharString>
        <CharString name="Bethb">
          -39 endchar
        </CharString>
        <CharString name="C">
          1 348 -12 -74 callgsubr
        </CharString>
        <CharString name="Ccaron">
          1 267 -61 callgsubr
          81 -715 -74 callgsubr
        </CharString>
        <CharString name="Ccedilla">
          1 348 -12 -74 callgsubr
        </CharString>
        <CharString name="D">
          -68 callsubr
          endchar
        </CharString>
        <CharString name="E">
          -34 79 hmoveto
          -82 callgsubr
        </CharString>
        <CharString name="Eacute">
          -34 276 -60 callsubr
          -197 -683 -77 callgsubr
        </CharString>
        <CharString name="Ebreve">
          -34 287 -66 callgsubr
          -208 -699 -77 callgsubr
        </CharString>
        <CharString name="Ecircumflex">
          -34 181 -65 callsubr
          -102 -688 -77 callgsubr
        </CharString>
        <CharString name="Edieresis">
          -34 178 -96 callsubr
          -319 -703 -77 callgsubr
        </CharString>
        <CharString name="Egrave">
          -34 300 -34 callsubr
          -221 -683 -77 callgsubr
        </CharString>
        <CharString name="Emacron">
          -34 139 -13 callgsubr
          -60 -724 -77 callgsubr
        </CharString>
        <CharString name="Eogonek">
          -34 412 -222 rmoveto
          33 43 15 19 24 hvcurveto
          -32 70 rlineto
          -7 -10 -13 -7 -13 hhcurveto
          -22 -21 12 27 46 41 44 46 3 hvcurveto
          5 -86 callsubr
          299 hlineto
          -35 -22 -43 -46 -60 vvcurveto
          -60 50 -34 62 vhcurveto
          endchar
        </CharString>
        <CharString name="Eth">
          77 285 653 rmoveto
          -181 -281 hlineto
          -77 -5 rlineto
          -62 77 -305 189 vlineto
          -17 callgsubr
          -8 -542 rmoveto
          -36 194 128 67 -128 170 36 hlineto
          -4 callgsubr
          endchar
        </CharString>
        <CharString name="Euro">
          -100 callsubr
        </CharString>
        <CharString name="Euro.001">
          -100 callsubr
        </CharString>
        <CharString name="Euro.heb">
          -39 endchar
        </CharString>
        <CharString name="Euro.heb.001">
          -39 endchar
        </CharString>
        <CharString name="Euro.lat">
          -100 callsubr
        </CharString>
        <CharString name="Euro.lat.001">
          -100 callsubr
        </CharString>
        <CharString name="F">
          -59 37 callsubr
          260 230 115 -230 163 269 115 -406 12 callsubr
          endchar
        </CharString>
        <CharString name="G">
          56 363 -12 -91 callsubr
        </CharString>
        <CharString name="Gcaron">
          56 291 -61 callgsubr
          72 -715 -91 callsubr
        </CharString>
        <CharString name="Gdotaccent">
          56 364 22 callsubr
          -1 -715 -91 callsubr
        </CharString>
        <CharString name="H">
          -29 callgsubr
          endchar
        </CharString>
        <CharString name="Hbar">
          129 682 554 rmoveto
          -71 99 -137 -99 -238 99 -137 -99 hlineto
          -73 -5 rlineto
          -62 73 -487 137 278 238 -278 137 487 71 67 vlineto
          -208 -156 rmoveto
          -238 89 238 -89 hlineto
          endchar
        </CharString>
        <CharString name="I">
          -284 79 hmoveto
          8 callgsubr
        </CharString>
        <CharString name="Iacute">
          -284 136 -60 callsubr
          -57 -683 22 callgsubr
        </CharString>
        <CharString name="Icircumflex">
          -284 41 -65 callsubr
          38 -688 22 callgsubr
        </CharString>
        <CharString name="Idieresis">
          -284 38 -96 callsubr
          -179 -703 22 callgsubr
        </CharString>
        <CharString name="Igrave">
          -284 160 -34 callsubr
          -81 -683 22 callgsubr
        </CharString>
        <CharString name="Imacron">
          -284 -1 -13 callgsubr
          80 -724 22 callgsubr
        </CharString>
        <CharString name="J">
          -75 224 -12 rmoveto
          141 63 102 123 hvcurveto
          440 -137 -428 vlineto
          -89 -29 -29 -56 -35 -34 20 46 -25 vhcurveto
          -94 -69 rlineto
          -77 44 65 -39 97 hhcurveto
          endchar
        </CharString>
        <CharString name="K">
          -57 callgsubr
          endchar
        </CharString>
        <CharString name="L">
          -66 79 hmoveto
          399 115 -262 538 8 callsubr
        </CharString>
        <CharString name="Lslash">
          -60 223 115 rmoveto
          163 vlineto
          207 112 -47 83 -160 -89 rlineto
          269 -137 -330 vlineto
          -107 -61 47 -82 60 35 rlineto
          -215 399 115 -262 vlineto
          endchar
        </CharString>
        <CharString name="M">
          178 79 hmoveto
          123 259 hlineto
          63 -11 92 -6 62 vhcurveto
          4 hlineto
          52 -153 97 -265 rlineto
          78 hlineto
          97 265 53 153 36 callsubr
          -6 -62 -11 -92 -63 vvcurveto
          -259 125 653 -151 vlineto
          -106 -300 -14 -39 -11 -43 -14 -41 20 callgsubr
          -13 41 -12 43 -14 39 -109 300 rcurveline
          -151 12 callsubr
          endchar
        </CharString>
        <CharString name="N">
          83 79 hmoveto
          -28 callgsubr
        </CharString>
        <CharString name="Ntilde">
          83 405 -55 callsubr
          -326 -695 rmoveto
          -28 callgsubr
        </CharString>
        <CharString name="O">
          102 341 -12 -104 callsubr
        </CharString>
        <CharString name="OE">
          288 372 hmoveto
          443 115 -262 165 212 115 -212 143 252 115 -425 hlineto
          -195 -138 -102 -222 -221 138 -108 187 hvcurveto
          16 111 rmoveto
          -122 -79 59 159 159 79 54 122 hvcurveto
          27 -431 -27 hlineto
          endchar
        </CharString>
        <CharString name="Oacute">
          102 329 -60 callsubr
          12 -695 -104 callsubr
        </CharString>
        <CharString name="Obreve">
          102 340 -66 callgsubr
          1 -711 -104 callsubr
        </CharString>
        <CharString name="Ocircumflex">
          102 234 -65 callsubr
          107 -700 -104 callsubr
        </CharString>
        <CharString name="Odieresis">
          102 231 -96 callsubr
          -110 -715 -104 callsubr
        </CharString>
        <CharString name="Ograve">
          102 353 -34 callsubr
          -12 -695 -104 callsubr
        </CharString>
        <CharString name="Omacron">
          102 192 -13 callgsubr
          149 -736 -104 callsubr
        </CharString>
        <CharString name="Oslash">
          102 653 637 rmoveto
          -71 55 -65 -82 rlineto
          36 -48 -59 19 -68 hhcurveto
          -39 callsubr
          -92 23 -77 40 -57 hvcurveto
          -70 -87 72 -56 62 78 rlineto
          -33 46 57 -17 64 hhcurveto
          -31 callsubr
          87 -20 73 -36 55 hvcurveto
          74 93 rlineto
          -465 -308 rmoveto
          136 60 81 93 38 32 -13 -24 24 vhcurveto
          -231 -289 rlineto
          -10 31 -6 37 41 vvcurveto
          306 hmoveto
          -136 -59 -86 -94 -33 -29 11 20 -24 vhcurveto
          228 285 rlineto
          7 -27 4 -32 -35 vvcurveto
          endchar
        </CharString>
        <CharString name="Otilde">
          102 413 -55 callsubr
          -72 -707 -104 callsubr
        </CharString>
        <CharString name="P">
          13 37 callsubr
          228 85 41 callsubr
          -113 51 -144 hvcurveto
          -218 31 callgsubr
          337 rmoveto
          207 72 vlineto
          86 46 -26 -72 -72 -41 -37 -87 hvcurveto
          -76 hlineto
          endchar
        </CharString>
        <CharString name="Q">
          102 641 -58 rmoveto
          -6 -19 -25 -5 -28 hhcurveto
          -58 -58 19 48 -30 hvcurveto
          128 35 83 119 177 vvcurveto
          -77 callsubr
          -185 92 -122 139 -28 vhcurveto
          -100 45 95 -73 135 hhcurveto
          49 40 9 11 23 hvcurveto
          -24 101 rlineto
          -454 387 rmoveto
          -46 callgsubr
          -143 -59 -86 -94 -93 -60 86 143 vhcurveto
          endchar
        </CharString>
        <CharString name="R">
          27 587 hmoveto
          -151 265 rlineto
          73 30 48 61 97 vvcurveto
          152 -110 48 -138 vhcurveto
          -230 -653 137 242 87 hlineto
          130 -242 rlineto
          154 hlineto
          -371 544 rmoveto
          81 hlineto
          82 44 -23 -68 -68 -44 -34 -82 hvcurveto
          -81 193 hlineto
          endchar
        </CharString>
        <CharString name="S">
          -27 276 -12 -96 callgsubr
          endchar
        </CharString>
        <CharString name="Sacute">
          -27 277 -60 callsubr
          -1 -695 -96 callgsubr
          endchar
        </CharString>
        <CharString name="Scaron">
          -27 215 -61 callgsubr
          61 -715 -96 callgsubr
          endchar
        </CharString>
        <CharString name="T">
          -10 callsubr
          endchar
        </CharString>
        <CharString name="Thorn">
          33 37 callsubr
          127 95 41 callsubr
          -111 51 -142 hvcurveto
          -95 101 -137 31 callgsubr
          236 rmoveto
          207 86 vlineto
          84 44 -25 -73 -72 -41 -37 -87 hvcurveto
          -86 hlineto
          endchar
        </CharString>
        <CharString name="U">
          83 332 -12 -90 callgsubr
        </CharString>
        <CharString name="Uacute">
          83 319 -60 callsubr
          13 -695 -90 callgsubr
        </CharString>
        <CharString name="Ucircumflex">
          83 224 -65 callsubr
          108 -700 -90 callgsubr
        </CharString>
        <CharString name="Udieresis">
          83 221 -96 callsubr
          -109 -715 -90 callgsubr
        </CharString>
        <CharString name="Ugrave">
          83 343 -34 callsubr
          -11 -695 -90 callgsubr
        </CharString>
        <CharString name="Umacron">
          83 182 -13 callgsubr
          150 -736 -90 callgsubr
        </CharString>
        <CharString name="V">
          -19 callgsubr
          endchar
        </CharString>
        <CharString name="W">
          230 139 hmoveto
          169 hlineto
          67 312 11 51 8 51 9 49 28 callgsubr
          7 -49 9 -51 11 -51 69 -312 rcurveline
          172 hlineto
          119 653 42 callsubr
          -49 -313 -10 -68 -9 -70 -9 -69 20 callgsubr
          -14 69 -13 71 -14 67 -73 313 rcurveline
          -117 hlineto
          -74 -313 -13 -69 -14 -69 -13 -69 20 callgsubr
          -9 69 -10 69 -9 69 -49 313 rcurveline
          -141 hlineto
          124 -653 rlineto
          endchar
        </CharString>
        <CharString name="X">
          -20 12 hmoveto
          146 hlineto
          67 140 15 34 15 33 16 40 28 callgsubr
          18 -40 15 -33 17 -34 69 -140 rcurveline
          153 hlineto
          -182 330 171 323 rlineto
          -146 hlineto
          -58 -131 -13 -30 -14 -32 -15 -41 20 callgsubr
          -19 41 -14 32 -15 30 -62 131 rcurveline
          -153 hlineto
          171 -317 -182 -336 rlineto
          endchar
        </CharString>
        <CharString name="Y">
          -62 190 hmoveto
          -63 callgsubr
        </CharString>
        <CharString name="Yacute">
          -62 247 -60 callsubr
          -57 -683 rmoveto
          -63 callgsubr
        </CharString>
        <CharString name="Ydieresis">
          -62 149 -96 callsubr
          -179 -703 rmoveto
          -63 callgsubr
        </CharString>
        <CharString name="Z">
          -34 callgsubr
          endchar
        </CharString>
        <CharString name="ZWJ">
          -150 785 rmoveto
          34 73 233 -73 34 109 -301 -109 hlineto
          endchar
        </CharString>
        <CharString name="ZWNJ">
          -81 767 rmoveto
          81 81 79 -80 24 24 -79 83 79 82 -24 25 -79 -82 -81 84 -23 -27 78 -82 -78 -83 23 -25 rlineto
          endchar
        </CharString>
        <CharString name="Zcaron">
          -38 209 -61 callgsubr
          -172 -703 rmoveto
          -51 callsubr
          endchar
        </CharString>
        <CharString name="a">
          -55 190 -12 -107 callsubr
        </CharString>
        <CharString name="a.sups">
          -56 callgsubr
        </CharString>
        <CharString name="aacute">
          -55 290 -67 callgsubr
          -100 -585 -107 callsubr
        </CharString>
        <CharString name="abreve">
          -55 283 -42 callsubr
          -93 -584 -107 callsubr
        </CharString>
        <CharString name="acircumflex">
          -55 156 -79 callgsubr
          34 -574 -107 callsubr
        </CharString>
        <CharString name="acute">
          -26 284 -67 callgsubr
          endchar
        </CharString>
        <CharString name="acutecomb">
          7 -67 callgsubr
          endchar
        </CharString>
        <CharString name="acutecomb.cap">
          -12 -60 callsubr
          endchar
        </CharString>
        <CharString name="adieresis">
          -55 176 -99 callsubr
          -200 -584 -107 callsubr
        </CharString>
        <CharString name="ae">
          207 195 -12 rmoveto
          65 58 23 57 69 hvcurveto
          -47 41 55 -33 75 hhcurveto
          60 63 21 34 49 hvcurveto
          -47 89 rlineto
          -21 -36 -32 -15 -39 hhcurveto
          -64 -50 38 74 -10 hvcurveto
          291 19 callsubr
          22 25 vvcurveto
          136 -66 104 -130 -60 -47 -29 -51 -42 vhcurveto
          49 -27 -48 31 -63 hhcurveto
          -72 -68 -28 -37 -60 hvcurveto
          49 -90 rlineto
          27 47 43 19 42 hhcurveto
          59 19 -34 -46 3 hvcurveto
          -196 -21 -84 -38 callgsubr
          257 305 rmoveto
          72 9 38 37 50 hhcurveto
          57 26 -43 -66 hvcurveto
          -180 hlineto
          -211 -199 rmoveto
          -37 -25 17 36 42 41 31 106 15 hvcurveto
          2 -22 1 -24 5 -26 8 -21 rlinecurve
          -30 -29 -37 -18 -35 hhcurveto
          endchar
        </CharString>
        <CharString name="agrave">
          -55 276 -45 callsubr
          -86 -585 -107 callsubr
        </CharString>
        <CharString name="alphalatin">
          -9 243 -12 rmoveto
          51 54 30 37 34 hvcurveto
          3 hlineto
          -42 14 31 -25 48 hhcurveto
          27 15 3 7 14 hvcurveto
          2 103 rlineto
          -2 -7 -4 0 -3 hhcurveto
          -12 -8 8 25 hvcurveto
          363 -107 vlineto
          -11 -49 35 callsubr
          42 -40 -40 19 -50 hhcurveto
          -106 -104 -69 callsubr
          endchar
        </CharString>
        <CharString name="amacron">
          -55 137 -2 callgsubr
          53 -605 -107 callsubr
        </CharString>
        <CharString name="ampersand">
          -79 callsubr
        </CharString>
        <CharString name="ampersand.lat">
          -79 callsubr
        </CharString>
        <CharString name="approxequal">
          -56 347 358 rmoveto
          -47 callgsubr
          -230 vmoveto
          -47 callgsubr
          endchar
        </CharString>
        <CharString name="aring">
          -55 283 563 rmoveto
          -45 callgsubr
          -92 -627 -107 callsubr
        </CharString>
        <CharString name="asciicircum">
          -15 callsubr
        </CharString>
        <CharString name="asciicircum.lat">
          -15 callsubr
        </CharString>
        <CharString name="asciitilde">
          -56 347 243 rmoveto
          -47 callgsubr
          endchar
        </CharString>
        <CharString name="asterisk">
          -19 callsubr
        </CharString>
        <CharString name="asterisk.lat">
          -19 callsubr
        </CharString>
        <CharString name="at">
          -85 callsubr
        </CharString>
        <CharString name="at.lat">
          -85 callsubr
        </CharString>
        <CharString name="atilde">
          -55 350 -84 callgsubr
          -160 -586 -107 callsubr
        </CharString>
        <CharString name="b">
          -46 callsubr
          endchar
        </CharString>
        <CharString name="backslash">
          15 callgsubr
        </CharString>
        <CharString name="backslash.lat">
          15 callgsubr
        </CharString>
        <CharString name="bar">
          -315 87 -250 rmoveto
          90 1000 -90 -1000 hlineto
          endchar
        </CharString>
        <CharString name="braceleft">
          -58 callsubr
        </CharString>
        <CharString name="braceleft.lat">
          -58 callsubr
        </CharString>
        <CharString name="braceright">
          -58 callgsubr
        </CharString>
        <CharString name="braceright.lat">
          -58 callgsubr
        </CharString>
        <CharString name="bracketleft">
          20 callsubr
        </CharString>
        <CharString name="bracketleft.lat">
          20 callsubr
        </CharString>
        <CharString name="bracketright">
          21 callgsubr
        </CharString>
        <CharString name="bracketright.lat">
          21 callgsubr
        </CharString>
        <CharString name="breve">
          -26 277 -42 callsubr
          endchar
        </CharString>
        <CharString name="brokenbar">
          -315 87 618 rmoveto
          -737 90 737 -90 vlineto
          endchar
        </CharString>
        <CharString name="bullet">
          10 callsubr
        </CharString>
        <CharString name="bullet.lat">
          10 callsubr
        </CharString>
        <CharString name="c">
          -113 280 -12 -30 callgsubr
        </CharString>
        <CharString name="caron">
          -26 207 -78 callgsubr
          endchar
        </CharString>
        <CharString name="ccaron">
          -113 207 -78 callgsubr
          73 -589 -30 callgsubr
        </CharString>
        <CharString name="ccedilla">
          -113 294 -62 rmoveto
          22 53 44 6 45 18 37 33 rlinecurve
          -50 callgsubr
          -146 83 -91 115 -18 hvcurveto
          -41 -85 3 callsubr
          14 callgsubr
          endchar
        </CharString>
        <CharString name="cedilla">
          -26 177 -11 callgsubr
        </CharString>
        <CharString name="cent">
          -61 callsubr
        </CharString>
        <CharString name="cent.heb">
          -39 endchar
        </CharString>
        <CharString name="cent.lat">
          -61 callsubr
        </CharString>
        <CharString name="chi">
          -60 149 -189 rmoveto
          114 245 36 callsubr
          130 -245 134 30 -199 327 171 327 rlineto
          -142 hlineto
          -94 -210 35 callsubr
          -120 222 -135 -30 189 -312 -189 -342 141 -12 rlineto
          endchar
        </CharString>
        <CharString name="circledotted">
          0 367 402 rmoveto
          26 17 16 27 26 -19 16 -24 -9 -9 -3 -5 -7 hvcurveto
          -6 hlineto
          -21 -19 -15 -26 -26 19 -17 21 10 8 3 4 7 hvcurveto
          6 hlineto
          -183 78 rmoveto
          -22 -19 -14 -28 -26 19 49 callsubr
          26 28 -19 14 -22 hvcurveto
          271 -145 rmoveto
          24 16 16 26 27 -18 15 -22 -23 -19 -15 -27 -26 19 -16 23 hvcurveto
          -349 -21 rmoveto
          25 16 17 27 27 -17 14 -24 -21 -19 -14 -27 -27 19 -17 21 hvcurveto
          14 -66 rmoveto
          26 -19 15 -24 -21 -19 -15 -26 -27 19 -16 21 26 17 16 27 vhcurveto
          380 41 rmoveto
          -23 -18 -15 -26 -27 18 -16 23 24 18 16 27 26 -20 15 -22 hvcurveto
          -394 -108 rmoveto
          -21 -19 -16 -27 -26 19 -16 21 25 16 16 26 27 -17 16 -24 hvcurveto
          368 hmoveto
          -23 -19 -16 -27 -26 19 -16 23 24 16 16 26 27 -18 16 -22 hvcurveto
          -290 -83 rmoveto
          -22 -19 -14 -26 -28 19 49 callsubr
          28 26 -19 14 -22 hvcurveto
          210 hmoveto
          -21 -19 -14 -26 -28 19 -16 21 26 16 16 28 26 -19 14 -23 hvcurveto
          -105 -27 rmoveto
          -22 -18 -14 -26 -28 18 49 callsubr
          28 26 -17 14 -24 hvcurveto
          endchar
        </CharString>
        <CharString name="circumflex">
          -26 150 -79 callgsubr
          endchar
        </CharString>
        <CharString name="colon">
          13 callgsubr
          -330 vmoveto
          27 callsubr
        </CharString>
        <CharString name="comma">
          -287 150 164 -5 callgsubr
        </CharString>
        <CharString name="copyright">
          -78 callsubr
        </CharString>
        <CharString name="copyright.lat">
          -78 callsubr
        </CharString>
        <CharString name="currency">
          -56 90 87 rmoveto
          69 70 rlineto
          -18 32 35 -8 36 hhcurveto
          35 36 8 18 31 hvcurveto
          70 -70 69 69 -63 62 rlineto
          22 30 13 38 44 vvcurveto
          43 -12 38 -22 30 vhcurveto
          62 62 -69 69 -69 -70 rlineto
          18 -31 -36 9 -36 hhcurveto
          -36 -36 -9 -18 -31 hvcurveto
          -69 70 -69 -69 61 -62 rlineto
          -21 -30 -13 -38 -43 vvcurveto
          -44 13 -38 22 -30 vhcurveto
          -62 -62 69 -69 rlineto
          172 139 rmoveto
          -51 -41 41 63 63 41 41 51 51 40 -41 -63 -63 -40 -41 -51 hvcurveto
          endchar
        </CharString>
        <CharString name="d">
          -81 callgsubr
          endchar
        </CharString>
        <CharString name="dagger">
          -23 callsubr
        </CharString>
        <CharString name="dagger.lat">
          -23 callsubr
        </CharString>
        <CharString name="daggerdbl">
          -54 callsubr
        </CharString>
        <CharString name="daggerdbl.lat">
          -54 callsubr
        </CharString>
        <CharString name="degree">
          -18 callgsubr
        </CharString>
        <CharString name="degree.lat">
          -18 callgsubr
        </CharString>
        <CharString name="dieresis">
          -26 170 -99 callsubr
          endchar
        </CharString>
        <CharString name="divide">
          -56 261 437 28 callsubr
          -227 -155 47 callgsubr
          227 -205 28 callsubr
          endchar
        </CharString>
        <CharString name="dollar">
          -55 callgsubr
        </CharString>
        <CharString name="dollar.heb">
          -39 endchar
        </CharString>
        <CharString name="dollar.lat">
          -55 callgsubr
        </CharString>
        <CharString name="dotaccent">
          -26 277 -32 callsubr
          endchar
        </CharString>
        <CharString name="dotbelowcomb">
          -223 24 callgsubr
        </CharString>
        <CharString name="dotlessi">
          -307 67 hmoveto
          -35 callgsubr
        </CharString>
        <CharString name="dotlessj">
          -310 40 -200 rmoveto
          30 callsubr
          26 callsubr
          endchar
        </CharString>
        <CharString name="e">
          -65 477 270 -104 callgsubr
        </CharString>
        <CharString name="e.sups">
          -44 callgsubr
        </CharString>
        <CharString name="eacute">
          -65 459 729 rmoveto
          -25 callgsubr
          177 156 rlineto
          18 -459 -104 callgsubr
        </CharString>
        <CharString name="ebreve">
          -65 275 -42 callsubr
          202 -302 -104 callgsubr
        </CharString>
        <CharString name="ecircumflex">
          -65 272 658 rmoveto
          -73 callsubr
          124 96 40 callgsubr
          -388 -104 callgsubr
        </CharString>
        <CharString name="edieresis">
          -65 168 -99 callsubr
          95 -302 -104 callgsubr
        </CharString>
        <CharString name="egrave">
          -65 336 640 rmoveto
          -26 callsubr
          68 67 rlineto
          141 -370 -104 callgsubr
        </CharString>
        <CharString name="eight">
          -92 callsubr
        </CharString>
        <CharString name="eight.heb">
          -92 callsubr
        </CharString>
        <CharString name="eight.lat">
          -92 callsubr
        </CharString>
        <CharString name="eight.pnumheb">
          -56 endchar
        </CharString>
        <CharString name="eight.pnumlat">
          -56 endchar
        </CharString>
        <CharString name="ellipsis">
          417 166 -12 -90 callsubr
          334 hmoveto
          -97 callsubr
          334 hmoveto
          27 callsubr
        </CharString>
        <CharString name="emacron">
          -65 420 681 rmoveto
          -291 -88 291 88 hlineto
          57 -411 -104 callgsubr
        </CharString>
        <CharString name="emdash">
          33 callgsubr
        </CharString>
        <CharString name="emdash.lat">
          33 callgsubr
        </CharString>
        <CharString name="endash">
          33 callsubr
        </CharString>
        <CharString name="endash.lat">
          33 callsubr
        </CharString>
        <CharString name="eogonek">
          -65 361 -210 rmoveto
          31 42 13 20 25 hvcurveto
          -29 62 rlineto
          -7 -11 -12 -6 -13 hhcurveto
          -24 -19 13 26 40 20 31 88 61 hvcurveto
          -33 callgsubr
          -71 -51 38 77 -12 hvcurveto
          301 19 callsubr
          25 25 vvcurveto
          -82 callsubr
          9 9 0 4 13 vhcurveto
          -25 -23 -32 -40 -48 vvcurveto
          -60 45 -31 57 vhcurveto
          -193 509 rmoveto
          68 10 44 35 50 hhcurveto
          61 27 -41 -62 hvcurveto
          -192 hlineto
          endchar
        </CharString>
        <CharString name="eogonek.sups">
          -44 callgsubr
        </CharString>
        <CharString name="equal">
          -56 34 397 47 callgsubr
          -230 vmoveto
          1 callsubr
          endchar
        </CharString>
        <CharString name="estimated">
          221 401 -11 rmoveto
          114 102 52 79 65 hvcurveto
          -52 hlineto
          -68 -55 -82 -43 -91 hhcurveto
          -86 -78 38 61 -54 hvcurveto
          -4 6 -4 7 8 vvcurveto
          183 vlineto
          3 2 1 2 vhcurveto
          575 9 hlineto
          186 -158 150 -196 -196 -159 -150 -186 -186 159 -150 196 vhcurveto
          -221 346 rmoveto
          -2 -2 2 3 hvcurveto
          180 vlineto
          9 4 8 5 6 vhcurveto
          60 55 76 38 86 hhcurveto
          83 76 -37 -58 56 hvcurveto
          5 -6 4 -7 -9 vvcurveto
          -184 vlineto
          -3 -2 -2 -3 vhcurveto
          -441 hlineto
          endchar
        </CharString>
        <CharString name="eth">
          -21 371 602 rmoveto
          121 61 -36 62 -142 -72 -43 33 -48 29 -47 24 rlinecurve
          -60 -84 34 -18 31 -18 28 -19 rlinecurve
          -118 -60 36 -61 142 72 41 -40 29 -45 18 -57 rlinecurve
          32 -29 -40 13 -40 hhcurveto
          -107 -97 -85 -142 -147 106 -92 122 145 89 116 161 150 -55 107 -80 80 hvcurveto
          -94 -503 rmoveto
          -58 -50 46 82 82 43 43 63 35 35 -11 -37 31 hvcurveto
          1 -15 1 -15 -16 vvcurveto
          -106 -39 -53 -62 vhcurveto
          endchar
        </CharString>
        <CharString name="exclam">
          -24 callgsubr
        </CharString>
        <CharString name="exclam.lat">
          -24 callgsubr
        </CharString>
        <CharString name="exclamdown">
          -247 166 331 -90 callsubr
          -69 -507 54 callgsubr
          hlineto
          -4 127 -19 318 rlineto
          -90 hlineto
          -19 -318 -5 -127 rlineto
          endchar
        </CharString>
        <CharString name="exclamdown.lat">
          -247 endchar
        </CharString>
        <CharString name="f">
          -246 286 607 rmoveto
          17 18 -4 -7 17 hvcurveto
          6 callgsubr
          -18 callsubr
          vhcurveto
          endchar
        </CharString>
        <CharString name="fi">
          26 469 -32 callsubr
          -378 -43 -20 callgsubr
          309 -529 -33 callsubr
        </CharString>
        <CharString name="five">
          -80 callgsubr
        </CharString>
        <CharString name="five.heb">
          -80 callgsubr
        </CharString>
        <CharString name="five.lat">
          -80 callgsubr
        </CharString>
        <CharString name="five.pnumheb">
          -56 endchar
        </CharString>
        <CharString name="five.pnumlat">
          -56 endchar
        </CharString>
        <CharString name="fl">
          35 91 529 -20 callgsubr
          490 -428 rmoveto
          -14 callgsubr
          38 callsubr
          vhcurveto
          -16 102 rlineto
          endchar
        </CharString>
        <CharString name="florin">
          -67 callsubr
        </CharString>
        <CharString name="florin.heb">
          -39 endchar
        </CharString>
        <CharString name="florin.lat">
          -67 callsubr
        </CharString>
        <CharString name="four">
          -70 callgsubr
        </CharString>
        <CharString name="four.heb">
          -70 callgsubr
        </CharString>
        <CharString name="four.lat">
          -70 callgsubr
        </CharString>
        <CharString name="four.pnumheb">
          -56 endchar
        </CharString>
        <CharString name="four.pnumlat">
          -56 endchar
        </CharString>
        <CharString name="fraction">
          -53 callgsubr
        </CharString>
        <CharString name="fraction.lat">
          -53 callgsubr
        </CharString>
        <CharString name="g">
          -49 243 -213 -105 callsubr
        </CharString>
        <CharString name="gammalatin">
          -65 502 495 rmoveto
          -131 hlineto
          -69 -216 -13 -43 -14 -32 -13 -45 20 callgsubr
          -13 45 -13 32 -13 43 -69 216 rcurveline
          -138 hlineto
          166 -430 rlineto
          -23 -55 -12 -38 -46 vvcurveto
          -79 48 -53 69 68 48 53 79 46 -12 38 -23 56 vhcurveto
          161 429 rlineto
          -242 -629 rmoveto
          0 -5 20 32 vvcurveto
          26 0 26 4 40 vhcurveto
          6 -40 0 -26 -26 vvcurveto
          -32 -4 -20 -1 vhcurveto
          endchar
        </CharString>
        <CharString name="gcaron">
          -49 202 -78 callgsubr
          41 -790 -105 callsubr
        </CharString>
        <CharString name="gdotaccent">
          -49 272 -32 callsubr
          -29 -785 -105 callsubr
        </CharString>
        <CharString name="germandbls">
          44 415 -12 rmoveto
          118 63 72 90 hvcurveto
          155 -180 -7 71 54 80 30 97 vvcurveto
          84 -67 79 -131 -155 -76 -93 -128 vhcurveto
          -492 135 475 vlineto
          82 33 48 63 43 24 -30 -41 vhcurveto
          -75 -74 -28 -79 -132 180 5 -82 vvcurveto
          -30 -23 -23 -37 -32 -31 11 26 -34 vhcurveto
          -48 -93 rlineto
          -29 47 44 -17 58 hhcurveto
          endchar
        </CharString>
        <CharString name="glottalstopreversedsupmod">
          -243 132 379 rmoveto
          96 209 hlineto
          -77 48 -27 31 44 vvcurveto
          39 27 22 42 32 26 -18 -24 20 vhcurveto
          48 60 rlineto
          33 -30 -44 27 -62 hhcurveto
          -84 -72 -46 -90 -72 43 -43 62 -47 hvcurveto
          -173 vlineto
          endchar
        </CharString>
        <CharString name="grave">
          -26 270 -45 callsubr
          endchar
        </CharString>
        <CharString name="gravecomb">
          -7 -45 callsubr
          endchar
        </CharString>
        <CharString name="gravecomb.cap">
          12 -34 callsubr
          endchar
        </CharString>
        <CharString name="greater">
          -56 34 109 rmoveto
          455 175 rlineto
          96 vlineto
          -455 176 51 callsubr
          182 -61 135 -48 rlineto
          -4 vlineto
          -135 -47 -182 -61 51 callsubr
          endchar
        </CharString>
        <CharString name="greaterequal">
          -56 34 154 rmoveto
          455 144 rlineto
          114 vlineto
          -455 144 51 callsubr
          179 -51 138 -35 rlineto
          -4 vlineto
          -138 -36 -179 -50 51 callsubr
          -154 vmoveto
          1 callsubr
          endchar
        </CharString>
        <CharString name="guillemotleft">
          -107 -54 callgsubr
          184 7 callsubr
        </CharString>
        <CharString name="guillemotleft.lat">
          -107 -54 callgsubr
          183 7 callsubr
        </CharString>
        <CharString name="guillemotright">
          -107 -52 callsubr
          184 7 callgsubr
        </CharString>
        <CharString name="guillemotright.lat">
          -107 -52 callsubr
          183 7 callgsubr
        </CharString>
        <CharString name="guilsinglleft">
          -290 -54 callgsubr
          endchar
        </CharString>
        <CharString name="guilsinglleft.lat">
          -290 -54 callgsubr
          endchar
        </CharString>
        <CharString name="guilsinglright">
          -290 -52 callsubr
          endchar
        </CharString>
        <CharString name="guilsinglright.lat">
          -290 -52 callsubr
          endchar
        </CharString>
        <CharString name="h">
          -80 callsubr
          endchar
        </CharString>
        <CharString name="hbar">
          -12 352 460 rmoveto
          -67 -49 -35 -36 -38 hvcurveto
          6 92 rlineto
          78 171 67 -171 77 -137 -78 vlineto
          -69 -5 rlineto
          -61 69 -559 137 291 vlineto
          -31 callgsubr
          -244 136 261 11 callgsubr
          vhcurveto
          endchar
        </CharString>
        <CharString name="hungarumlaut">
          -26 225 2 callgsubr
        </CharString>
        <CharString name="hyphen">
          -8 callgsubr
        </CharString>
        <CharString name="i">
          -307 136 -32 callsubr
          -69 -572 -33 callsubr
        </CharString>
        <CharString name="iacute">
          -307 143 -67 callgsubr
          -76 -573 -33 callsubr
        </CharString>
        <CharString name="icircumflex">
          -307 9 -79 callgsubr
          58 -562 -33 callsubr
        </CharString>
        <CharString name="idieresis">
          -307 29 -99 callsubr
          -176 -572 -33 callsubr
        </CharString>
        <CharString name="igrave">
          -307 129 -45 callsubr
          -62 -573 -33 callsubr
        </CharString>
        <CharString name="imacron">
          -307 -10 -2 callgsubr
          77 -593 -33 callsubr
        </CharString>
        <CharString name="infinity">
          230 577 119 rmoveto
          107 87 81 140 113 -82 82 -105 -81 -61 -45 -66 -50 hvcurveto
          -4 hlineto
          49 -36 -52 46 -77 hhcurveto
          -110 -76 -74 -127 -93 73 -82 94 76 54 49 45 36 hvcurveto
          4 hlineto
          -80 62 58 -38 83 hhcurveto
          1 126 rmoveto
          -57 -40 45 59 -43 hvcurveto
          57 41 45 29 47 hhcurveto
          61 39 -39 -60 -48 -35 -43 -58 hvcurveto
          -361 -2 rmoveto
          -49 -30 37 42 41 26 29 48 42 39 -33 -46 31 hvcurveto
          -41 -28 -36 -29 -43 hhcurveto
          endchar
        </CharString>
        <CharString name="integral">
          -198 99 -158 rmoveto
          150 30 105 139 hvcurveto
          163 -38 150 152 vvcurveto
          95 11 42 52 14 12 -1 -3 10 vhcurveto
          13 100 rlineto
          3 -10 -22 4 -23 hhcurveto
          -150 -30 -105 -139 hvcurveto
          -162 38 -151 -152 vvcurveto
          -97 -11 -40 -53 -14 -12 1 3 -9 vhcurveto
          -14 -100 rlineto
          -3 11 22 -4 23 hhcurveto
          endchar
        </CharString>
        <CharString name="ismall">
          -192 51 hmoveto
          285 108 -74 279 74 108 -285 -108 74 -279 -74 45 callgsubr
        </CharString>
        <CharString name="j">
          -306 138 -32 callsubr
          -64 -582 rmoveto
          26 callsubr
          30 callsubr
          endchar
        </CharString>
        <CharString name="j.sups">
          -392 95 754 rmoveto
          32 24 21 30 29 -24 21 -32 -34 -23 -21 -29 -30 23 -21 34 hvcurveto
          -69 -512 rmoveto
          88 29 59 73 hvcurveto
          333 -97 -337 vlineto
          -37 -8 -15 -26 -12 -8 2 2 -7 vhcurveto
          -17 -72 rlineto
          -5 14 16 -3 28 hhcurveto
          endchar
        </CharString>
        <CharString name="k">
          -57 callsubr
          endchar
        </CharString>
        <CharString name="l">
          -10 callgsubr
        </CharString>
        <CharString name="lefttorightembed">
          32 callsubr
          -76 -36 76 hlineto
          -63 -66 25 -25 rlineto
          -168 91 49 callgsubr
        </CharString>
        <CharString name="less">
          -56 489 109 rmoveto
          113 vlineto
          -181 61 -135 47 rlineto
          4 vlineto
          135 48 181 61 rlineto
          113 vlineto
          -455 -176 rlineto
          -96 vlineto
          455 -175 rlineto
          endchar
        </CharString>
        <CharString name="lessequal">
          -56 489 154 rmoveto
          113 vlineto
          -178 50 -138 36 rlineto
          4 vlineto
          138 35 178 51 rlineto
          113 vlineto
          -455 -144 rlineto
          -114 vlineto
          455 -144 rlineto
          -455 -154 47 callgsubr
          endchar
        </CharString>
        <CharString name="litre">
          -118 413 146 rmoveto
          -21 -24 -30 -23 -39 hhcurveto
          -43 -36 27 71 hvcurveto
          26 vlineto
          141 105 64 94 124 vvcurveto
          104 -64 62 -93 -104 -77 -73 -166 vhcurveto
          -223 vlineto
          -29 -19 -32 -20 -35 -21 51 -84 rcurveline
          17 10 16 10 16 10 rrcurveto
          -100 18 79 -51 90 hhcurveto
          68 54 37 38 43 hvcurveto
          -51 83 rlineto
          -172 349 rmoveto
          87 25 33 27 24 17 -21 -46 -74 -32 -60 -61 -59 vhcurveto
          140 vlineto
          endchar
        </CharString>
        <CharString name="logicalnot">
          -56 388 96 rmoveto
          101 283 -455 -97 354 -186 hlineto
          endchar
        </CharString>
        <CharString name="lozenge">
          -36 215 -10 rmoveto
          112 hlineto
          163 340 -163 340 rlineto
          -112 hlineto
          -163 -340 163 -340 rlineto
          55 115 rmoveto
          -55 122 -49 103 49 103 55 123 36 callsubr
          55 -123 48 -103 -48 -103 -55 -122 35 callsubr
          endchar
        </CharString>
        <CharString name="lslash">
          -283 239 99 rmoveto
          -12 -14 10 30 hvcurveto
          213 vlineto
          96 55 -47 85 -49 -29 rlineto
          240 -137 -307 vlineto
          -94 -54 47 -85 47 29 rlineto
          -141 vlineto
          -95 33 -62 95 38 callsubr
          vhcurveto
          -16 102 rlineto
          -2 -9 -4 0 -5 hhcurveto
          endchar
        </CharString>
        <CharString name="m">
          274 67 hmoveto
          26 callgsubr
          35 33 31 17 26 hhcurveto
          45 21 -25 -74 hvcurveto
          -291 137 338 vlineto
          35 33 30 17 27 hhcurveto
          45 21 -25 -74 hvcurveto
          -291 137 308 vlineto
          124 -48 75 -106 -65 -47 -38 -47 -45 vhcurveto
          54 -24 -42 31 -70 hhcurveto
          -64 -46 -35 -42 -41 hvcurveto
          -3 hlineto
          -10 65 30 callgsubr
        </CharString>
        <CharString name="macron">
          -26 131 -2 callgsubr
          endchar
        </CharString>
        <CharString name="minus">
          -56 34 282 47 callgsubr
          endchar
        </CharString>
        <CharString name="multiply">
          -56 117 114 rmoveto
          144 147 145 -147 69 69 -145 146 145 146 -69 70 -145 -147 -144 147 -69 -70 145 -146 -145 -146 69 -69 rlineto
          endchar
        </CharString>
        <CharString name="n">
          -11 -75 callsubr
          -50 -35 -41 -43 vhcurveto
          -3 hlineto
          -10 64 30 callgsubr
        </CharString>
        <CharString name="newsheqel">
          -56 endchar
        </CharString>
        <CharString name="newsheqel.heb">
          -39 endchar
        </CharString>
        <CharString name="newsheqel.lat">
          -86 endchar
        </CharString>
        <CharString name="nine">
          -88 callsubr
        </CharString>
        <CharString name="nine.heb">
          -88 callsubr
        </CharString>
        <CharString name="nine.lat">
          -88 callsubr
        </CharString>
        <CharString name="nine.pnumheb">
          -56 endchar
        </CharString>
        <CharString name="nine.pnumlat">
          -56 endchar
        </CharString>
        <CharString name="notequal">
          -56 53 44 rmoveto
          88 hlineto
          73 123 rlineto
          275 97 -221 hlineto
          76 133 rlineto
          145 97 -91 hlineto
          72 122 rlineto
          -88 hlineto
          -72 -122 rlineto
          -276 -97 222 hlineto
          -76 -133 rlineto
          -146 -97 92 hlineto
          -73 -123 rlineto
          endchar
        </CharString>
        <CharString name="ntilde">
          -11 377 -84 callgsubr
          -310 -574 rmoveto
          -70 callsubr
          -50 -35 -41 -43 vhcurveto
          -3 hlineto
          -10 64 30 callgsubr
        </CharString>
        <CharString name="numbersign">
          -65 callgsubr
        </CharString>
        <CharString name="numbersign.heb">
          -39 endchar
        </CharString>
        <CharString name="numbersign.lat">
          -65 callgsubr
        </CharString>
        <CharString name="o">
          -26 276 -12 -101 callgsubr
        </CharString>
        <CharString name="o.sups">
          -24 callsubr
        </CharString>
        <CharString name="oacute">
          -26 284 -67 callgsubr
          -8 -585 -101 callgsubr
        </CharString>
        <CharString name="obreve">
          -26 277 -42 callsubr
          -1 -584 -101 callgsubr
        </CharString>
        <CharString name="ocircumflex">
          -26 150 -79 callgsubr
          126 -574 -101 callgsubr
        </CharString>
        <CharString name="odieresis">
          -26 170 -99 callsubr
          -108 -584 -101 callgsubr
        </CharString>
        <CharString name="oe">
          246 266 -12 rmoveto
          74 53 32 61 41 hvcurveto
          -59 40 60 -34 62 hhcurveto
          60 64 21 34 50 hvcurveto
          -47 89 rlineto
          -21 -36 -33 -15 -39 hhcurveto
          -64 -51 38 74 -10 hvcurveto
          292 19 callsubr
          22 25 vvcurveto
          136 -67 104 -129 -62 -58 -34 -59 -40 vhcurveto
          58 -37 -55 35 -71 hhcurveto
          -125 -107 5 callsubr
          104 -95 125 hvcurveto
          224 305 rmoveto
          72 9 39 37 49 hhcurveto
          57 27 -43 -66 hvcurveto
          -181 hlineto
          -220 -194 rmoveto
          -58 -36 58 90 90 36 59 58 58 37 -59 -90 -90 -37 -58 -58 hvcurveto
          endchar
        </CharString>
        <CharString name="ogonek">
          -26 endchar
        </CharString>
        <CharString name="ograve">
          -26 270 -45 callsubr
          6 -585 -101 callgsubr
        </CharString>
        <CharString name="omacron">
          -26 131 -2 callgsubr
          145 -605 -101 callgsubr
        </CharString>
        <CharString name="one">
          -37 callgsubr
        </CharString>
        <CharString name="one.heb">
          -37 callgsubr
        </CharString>
        <CharString name="one.lat">
          -37 callgsubr
        </CharString>
        <CharString name="one.pnumheb">
          -90 endchar
        </CharString>
        <CharString name="one.pnumlat">
          -175 159 hmoveto
          136 636 -101 hlineto
          -43 -27 -44 -17 -67 -12 rrcurveto
          -85 119 -495 vlineto
          endchar
        </CharString>
        <CharString name="one.sups">
          -204 endchar
        </CharString>
        <CharString name="one.supsheb">
          -84 endchar
        </CharString>
        <CharString name="one.supslat">
          -114 endchar
        </CharString>
        <CharString name="onehalf">
          261 194 -76 callsubr
        </CharString>
        <CharString name="onehalf.heb">
          -39 endchar
        </CharString>
        <CharString name="onehalf.lat">
          261 548 665 rmoveto
          -285 -545 rlineto
          338 36 callgsubr
          75 vlineto
          17 callgsubr
          123 -580 rmoveto
          59 65 51 56 65 vvcurveto
          84 -57 47 -85 -58 -49 -28 -51 -39 vhcurveto
          58 -53 rlineto
          30 22 23 19 28 hhcurveto
          37 23 -24 -41 -50 -70 -63 -104 -86 hvcurveto
          -55 286 85 -125 vlineto
          endchar
        </CharString>
        <CharString name="onequarter">
          256 200 -76 callsubr
        </CharString>
        <CharString name="onequarter.heb">
          -39 endchar
        </CharString>
        <CharString name="onequarter.lat">
          256 554 665 rmoveto
          -291 -557 rlineto
          350 36 callgsubr
          81 vlineto
          17 callgsubr
          268 -12 callsubr
        </CharString>
        <CharString name="ordfeminine">
          -56 callgsubr
        </CharString>
        <CharString name="ordmasculine">
          -24 callsubr
        </CharString>
        <CharString name="oslash">
          -26 endchar
        </CharString>
        <CharString name="otilde">
          -26 344 -84 callgsubr
          -68 -586 -101 callgsubr
        </CharString>
        <CharString name="p">
          41 callgsubr
          -5 80 rlineto
          -34 37 41 -19 43 44 callsubr
          -72 99 -121 -53 -51 -27 -35 -40 hvcurveto
          -3 hlineto
          -10 50 rlineto
          -112 -683 hlineto
          2 callsubr
        </CharString>
        <CharString name="paragraph">
          -12 callgsubr
        </CharString>
        <CharString name="paragraph.lat">
          -12 callgsubr
        </CharString>
        <CharString name="parenleft">
          -27 callsubr
        </CharString>
        <CharString name="parenleft.lat">
          -27 callsubr
        </CharString>
        <CharString name="parenright">
          -26 callgsubr
        </CharString>
        <CharString name="parenright.lat">
          -26 callgsubr
        </CharString>
        <CharString name="partialdiff">
          -10 294 665 rmoveto
          -69 -58 -27 -46 -52 hvcurveto
          60 -84 rlineto
          30 31 33 16 40 hhcurveto
          80 34 -61 -121 hvcurveto
          -22 vlineto
          40 -35 -48 23 -48 hhcurveto
          -127 -88 -92 -137 -121 89 -75 105 166 116 154 234 182 -79 107 -150 hvcurveto
          -38 -566 rmoveto
          -44 -39 32 61 78 42 38 63 37 37 -17 -44 30 hvcurveto
          -106 -21 -50 -42 -55 hhcurveto
          endchar
        </CharString>
        <CharString name="percent">
          266 205 -76 callsubr
        </CharString>
        <CharString name="percent.heb">
          -39 endchar
        </CharString>
        <CharString name="percent.lat">
          273 559 665 rmoveto
          -211 -404 rlineto
          3 vlineto
          130 -67 76 -93 -94 -67 -76 -130 -131 67 -77 94 21 20 4 8 18 vhcurveto
          17 callgsubr
          98 -263 rmoveto
          -9 callgsubr
          -469 23 callgsubr
          469 -68 rmoveto
          0 callgsubr
          endchar
        </CharString>
        <CharString name="period">
          -287 146 -12 -75 callgsubr
        </CharString>
        <CharString name="periodcentered">
          10 callgsubr
        </CharString>
        <CharString name="periodcentered.lat">
          10 callgsubr
        </CharString>
        <CharString name="perthousand">
          -53 callgsubr
        </CharString>
        <CharString name="perthousand.heb">
          -39 endchar
        </CharString>
        <CharString name="perthousand.lat">
          661 263 470 rmoveto
          -12 hlineto
          102 195 rlineto
          -80 hlineto
          -354 -677 rlineto
          80 hlineto
          110 209 rlineto
          -90 19 58 -51 77 hhcurveto
          93 67 77 131 130 -67 76 -93 hvcurveto
          393 -68 rmoveto
          -9 callgsubr
          374 hmoveto
          -9 callgsubr
          -767 23 callgsubr
          393 -68 rmoveto
          0 callgsubr
          374 hmoveto
          0 callgsubr
          endchar
        </CharString>
        <CharString name="pi">
          48 515 -12 rmoveto
          36 31 7 7 19 hvcurveto
          -16 101 rlineto
          -2 -15 -13 -2 -10 hhcurveto
          -29 -15 11 34 27 0 125 6 91 hvcurveto
          95 108 -512 hlineto
          -74 -6 rlineto
          -102 109 vlineto
          -114 -12 -139 -24 -134 vhcurveto
          137 -8 rlineto
          13 131 13 142 122 vvcurveto
          125 hlineto
          -1 -87 -4 -117 -33 vvcurveto
          -99 36 -63 105 vhcurveto
          endchar
        </CharString>
        <CharString name="plus">
          -56 211 96 rmoveto
          101 186 177 97 -177 186 -101 -186 -177 -97 177 -186 hlineto
          endchar
        </CharString>
        <CharString name="plusminus">
          -56 211 153 rmoveto
          101 143 177 97 -177 172 -101 -172 -177 -97 177 -143 hlineto
          -177 -153 47 callgsubr
          endchar
        </CharString>
        <CharString name="popdirectionformat">
          -19 765 rmoveto
          36 160 hlineto
          62 -64 25 26 -104 107 -104 -107 25 -26 60 63 rlineto
          -159 vlineto
          endchar
        </CharString>
        <CharString name="product">
          125 81 -120 54 callgsubr
          636 268 -636 137 756 -542 -756 hlineto
          endchar
        </CharString>
        <CharString name="q">
          -9 366 -188 rmoveto
          136 683 -107 hlineto
          -11 -49 35 callsubr
          42 -40 -39 19 -54 hhcurveto
          -106 -101 4 callsubr
          46 48 24 33 34 hvcurveto
          -5 -78 rlineto
          -155 vlineto
          -88 288 -62 callsubr
          endchar
        </CharString>
        <CharString name="question">
          -49 callsubr
        </CharString>
        <CharString name="question.lat">
          -49 callsubr
        </CharString>
        <CharString name="questiondown">
          -50 callsubr
        </CharString>
        <CharString name="questiondown.lat">
          -50 callsubr
        </CharString>
        <CharString name="quotedbl">
          -60 -21 callsubr
          227 hmoveto
          -28 callsubr
          endchar
        </CharString>
        <CharString name="quotedbl.lat">
          -60 endchar
        </CharString>
        <CharString name="quotedblbase">
          -60 148 167 -48 callsubr
        </CharString>
        <CharString name="quotedblbase.lat">
          -60 endchar
        </CharString>
        <CharString name="quotedblleft">
          -60 223 625 rmoveto
          -36 callsubr
          -3 -3 0 -1 -3 vhcurveto
          59 29 37 59 30 vhcurveto
          148 -125 -44 callsubr
        </CharString>
        <CharString name="quotedblleft.lat">
          -60 endchar
        </CharString>
        <CharString name="quotedblright">
          -60 148 697 -48 callsubr
        </CharString>
        <CharString name="quotedblright.lat">
          -60 endchar
        </CharString>
        <CharString name="quoteleft">
          -15 callgsubr
        </CharString>
        <CharString name="quoteleft.lat">
          -15 callgsubr
        </CharString>
        <CharString name="quoteright">
          -16 callgsubr
        </CharString>
        <CharString name="quoteright.lat">
          -16 callgsubr
        </CharString>
        <CharString name="quotesinglbase">
          -16 callsubr
        </CharString>
        <CharString name="quotesinglbase.lat">
          -16 callsubr
        </CharString>
        <CharString name="quotesingle">
          -287 -21 callsubr
          endchar
        </CharString>
        <CharString name="quotesingle.lat">
          -287 -21 callsubr
          endchar
        </CharString>
        <CharString name="r">
          -189 67 45 callsubr
          292 hlineto
          70 27 46 25 38 hhcurveto
          21 14 -4 -4 18 hvcurveto
          23 118 rlineto
          6 -15 -16 4 -27 hhcurveto
          -52 -53 -34 -65 -36 hvcurveto
          -3 hlineto
          -10 87 30 callgsubr
        </CharString>
        <CharString name="radical">
          4 278 -83 rmoveto
          95 hlineto
          216 903 rlineto
          -91 hlineto
          -161 -688 -6 -26 -5 -27 -4 -26 20 callgsubr
          -5 26 -7 27 -8 26 -101 303 rcurveline
          -168 -69 25 -65 74 30 150 -414 rlineto
          endchar
        </CharString>
        <CharString name="registered">
          -68 callgsubr
        </CharString>
        <CharString name="registered.lat">
          -68 callgsubr
        </CharString>
        <CharString name="righttoleftembed">
          44 callgsubr
          75 36 -76 38 callgsubr
          80 90 49 callgsubr
        </CharString>
        <CharString name="ring">
          -26 277 563 rmoveto
          -45 callgsubr
          endchar
        </CharString>
        <CharString name="ringhalfleftmod">
          -404 endchar
        </CharString>
        <CharString name="ringhalfrightmod">
          -404 endchar
        </CharString>
        <CharString name="rsmall">
          -53 509 hmoveto
          -124 194 rlineto
          48 26 35 45 69 vvcurveto
          121 -89 40 -113 vhcurveto
          -199 -495 137 167 60 hlineto
          93 -167 rlineto
          152 hlineto
          -305 394 rmoveto
          45 hlineto
          56 29 -21 -43 -43 -29 -27 -56 hvcurveto
          -45 134 hlineto
          endchar
        </CharString>
        <CharString name="rsmallinverted">
          -53 322 495 53 callgsubr
          -60 vlineto
          -93 166 rlineto
          -152 hlineto
          124 -193 rlineto
          -48 -26 -35 -45 -69 vvcurveto
          -121 89 -41 113 vhcurveto
          199 495 -137 hlineto
          -394 vmoveto
          -46 hlineto
          -55 -29 21 43 43 29 28 55 hvcurveto
          46 -135 hlineto
          endchar
        </CharString>
        <CharString name="s">
          -140 211 -12 -93 callsubr
          endchar
        </CharString>
        <CharString name="sacute">
          -140 246 -67 callgsubr
          -35 -585 -93 callsubr
          endchar
        </CharString>
        <CharString name="scaron">
          -140 169 -78 callgsubr
          42 -589 -93 callsubr
          endchar
        </CharString>
        <CharString name="section">
          -56 endchar
        </CharString>
        <CharString name="section.lat">
          -56 endchar
        </CharString>
        <CharString name="semicolon">
          13 callgsubr
          4 -154 -5 callgsubr
        </CharString>
        <CharString name="seven">
          -49 callgsubr
        </CharString>
        <CharString name="seven.heb">
          -49 callgsubr
        </CharString>
        <CharString name="seven.lat">
          -49 callgsubr
        </CharString>
        <CharString name="seven.pnumheb">
          -56 endchar
        </CharString>
        <CharString name="seven.pnumlat">
          -67 152 hmoveto
          138 hlineto
          11 248 20 124 146 180 rrcurveto
          84 -423 -115 276 vlineto
          -119 -168 -37 29 callsubr
        </CharString>
        <CharString name="six">
          -88 callgsubr
        </CharString>
        <CharString name="six.heb">
          -88 callgsubr
        </CharString>
        <CharString name="six.lat">
          -88 callgsubr
        </CharString>
        <CharString name="six.pnumheb">
          -56 endchar
        </CharString>
        <CharString name="six.pnumlat">
          -56 endchar
        </CharString>
        <CharString name="slash">
          16 callsubr
        </CharString>
        <CharString name="slash.lat">
          16 callsubr
        </CharString>
        <CharString name="space">
          -379 endchar
        </CharString>
        <CharString name="sterling">
          -63 callsubr
        </CharString>
        <CharString name="sterling.heb">
          -39 endchar
        </CharString>
        <CharString name="sterling.lat">
          -63 callsubr
        </CharString>
        <CharString name="summation">
          -49 25 -120 rmoveto
          496 115 -326 4 hlineto
          182 259 -175 259 rlineto
          4 294 115 -460 -82 vlineto
          201 -297 -212 -296 rlineto
          -81 vlineto
          endchar
        </CharString>
        <CharString name="t">
          -72 callsubr
          endchar
        </CharString>
        <CharString name="theta">
          -34 273 -12 rmoveto
          134 88 119 247 242 -88 119 -134 -134 -89 -118 -243 -247 89 -119 134 hvcurveto
          -1 111 rmoveto
          -50 -40 53 202 201 40 49 50 51 39 -49 -201 -202 -39 -53 -51 hvcurveto
          -149 210 rmoveto
          91 298 -91 -298 vlineto
          endchar
        </CharString>
        <CharString name="thorn">
          41 callgsubr
          -3 75 rlineto
          -30 35 37 -18 47 44 callsubr
          -75 99 -126 -46 -46 -21 -31 -35 hvcurveto
          3 72 rlineto
          176 -137 -891 vlineto
          2 callsubr
        </CharString>
        <CharString name="three">
          -97 callgsubr
        </CharString>
        <CharString name="three.heb">
          -97 callgsubr
        </CharString>
        <CharString name="three.lat">
          -97 callgsubr
        </CharString>
        <CharString name="three.pnumheb">
          -56 endchar
        </CharString>
        <CharString name="three.pnumlat">
          -97 callgsubr
        </CharString>
        <CharString name="three.sups">
          -204 endchar
        </CharString>
        <CharString name="three.supsheb">
          -84 endchar
        </CharString>
        <CharString name="three.supslat">
          -114 endchar
        </CharString>
        <CharString name="threequarters">
          261 213 -76 callsubr
        </CharString>
        <CharString name="threequarters.heb">
          -39 endchar
        </CharString>
        <CharString name="threequarters.lat">
          261 566 665 rmoveto
          -238 -456 -12 30 -25 20 -30 12 rlinecurve
          36 20 22 28 43 vvcurveto
          67 -62 41 -72 -60 -40 -22 -45 -41 vhcurveto
          58 -51 rlineto
          23 18 22 18 26 hhcurveto
          32 20 -17 -28 -34 -32 -18 -51 hvcurveto
          -59 vlineto
          65 33 -18 -36 -32 -27 -18 -33 -34 -27 16 33 -24 hvcurveto
          -62 -48 rlineto
          -50 34 55 -28 68 hhcurveto
          25 23 5 8 22 hvcurveto
          -43 -81 rlineto
          -59 callgsubr
          261 -12 callsubr
        </CharString>
        <CharString name="tilde">
          -26 344 -84 callgsubr
          endchar
        </CharString>
        <CharString name="tildecomb">
          67 -84 callgsubr
          endchar
        </CharString>
        <CharString name="tildecomb.cap">
          72 -55 callsubr
          endchar
        </CharString>
        <CharString name="trademark">
          -43 callsubr
        </CharString>
        <CharString name="trademark.lat">
          -43 callsubr
        </CharString>
        <CharString name="two">
          -76 callgsubr
        </CharString>
        <CharString name="two.heb">
          -76 callgsubr
        </CharString>
        <CharString name="two.lat">
          -76 callgsubr
        </CharString>
        <CharString name="two.pnumheb">
          -54 endchar
        </CharString>
        <CharString name="two.pnumlat">
          -57 45 hmoveto
          426 115 -122 hlineto
          -30 -43 -3 -4 -33 hvcurveto
          107 116 98 115 109 vvcurveto
          121 -79 79 -124 -89 -60 -34 -66 -62 vhcurveto
          75 -74 rlineto
          35 32 39 31 47 hhcurveto
          60 30 -37 -63 -93 -108 -109 -164 -159 hvcurveto
          -79 vlineto
          endchar
        </CharString>
        <CharString name="two.sups">
          -204 endchar
        </CharString>
        <CharString name="two.supsheb">
          -84 endchar
        </CharString>
        <CharString name="two.supslat">
          -114 endchar
        </CharString>
        <CharString name="u">
          -14 215 -12 -94 callsubr
        </CharString>
        <CharString name="uacute">
          -14 298 -67 callgsubr
          -83 -585 -94 callsubr
        </CharString>
        <CharString name="ucircumflex">
          -14 164 -79 callgsubr
          51 -574 -94 callsubr
        </CharString>
        <CharString name="udieresis">
          -14 184 -99 callsubr
          -183 -584 -94 callsubr
        </CharString>
        <CharString name="ugrave">
          -14 284 -45 callsubr
          -69 -585 -94 callsubr
        </CharString>
        <CharString name="umacron">
          -14 145 -2 callgsubr
          70 -605 -94 callsubr
        </CharString>
        <CharString name="underscore">
          -79 12 -138 rmoveto
          476 78 -476 -78 hlineto
          endchar
        </CharString>
        <CharString name="uni00A0">
          -372 endchar
        </CharString>
        <CharString name="uni00AD">
          -8 callgsubr
        </CharString>
        <CharString name="uni018F">
          94 339 665 rmoveto
          -99 -74 -34 -46 -51 hvcurveto
          63 -94 rlineto
          33 36 47 29 62 hhcurveto
          101 55 -60 -125 10 hvcurveto
          -434 hlineto
          -1 -15 -2 -16 -14 vvcurveto
          -215 109 -120 174 175 116 119 221 220 -115 117 -172 vhcurveto
          -4 -565 rmoveto
          -82 -54 53 115 -7 hvcurveto
          295 hlineto
          -115 -14 -57 -53 -81 hhcurveto
          endchar
        </CharString>
        <CharString name="uni0250">
          -49 276 -12 rmoveto
          73 68 28 37 58 hvcurveto
          -49 90 rlineto
          -27 -46 -40 -19 -44 hhcurveto
          -68 -27 34 45 -3 hvcurveto
          198 22 84 66 108 vvcurveto
          79 -51 56 -83 -65 -55 -30 -44 -40 vhcurveto
          -3 hlineto
          -10 62 rlineto
          -112 -281 hlineto
          -148 75 -78 140 vhcurveto
          -79 272 rmoveto
          84 vlineto
          37 31 31 20 35 hhcurveto
          31 24 -16 -34 -43 -38 -32 -114 -16 hvcurveto
          endchar
        </CharString>
        <CharString name="uni0254">
          -113 186 -12 rmoveto
          135 107 95 164 167 -109 93 -127 -70 -55 -24 -30 -38 hvcurveto
          65 -88 rlineto
          21 25 22 10 35 hhcurveto
          65 47 -58 -91 -90 -50 -58 -67 -35 -32 17 21 -27 hvcurveto
          -54 -89 rlineto
          -42 48 60 -18 55 hhcurveto
          endchar
        </CharString>
        <CharString name="uni0259">
          -65 247 -12 rmoveto
          123 106 99 161 161 -99 98 -129 -63 -65 -15 -35 -52 hvcurveto
          45 -89 rlineto
          22 35 37 12 40 hhcurveto
          66 42 -38 -74 11 hvcurveto
          -302 hlineto
          -3 -12 -3 -26 -25 vvcurveto
          -138 73 -101 138 vhcurveto
          -3 105 rmoveto
          -62 -29 41 65 hvcurveto
          192 hlineto
          -73 -10 -38 -33 -53 hhcurveto
          endchar
        </CharString>
        <CharString name="uni025B">
          -121 265 -12 rmoveto
          63 51 12 39 60 hvcurveto
          -54 87 rlineto
          -23 -38 -36 -10 -32 hhcurveto
          -58 -41 23 38 38 28 16 56 hvcurveto
          81 91 -65 hlineto
          -52 -24 17 32 33 27 21 44 37 29 -10 -19 34 hvcurveto
          50 88 rlineto
          30 -48 -51 16 -58 hhcurveto
          -105 -93 -43 -97 -41 26 -45 55 -17 hvcurveto
          -4 vlineto
          -60 -16 -45 -36 -68 vvcurveto
          -98 107 -54 112 vhcurveto
          endchar
        </CharString>
        <CharString name="uni026B">
          -10 callgsubr
        </CharString>
        <CharString name="uni0283">
          -306 35 -23 callgsubr
          -14 vhcurveto
          -24 -101 rlineto
          -8 20 25 -6 40 hhcurveto
          endchar
        </CharString>
        <CharString name="uni028E">
          -66 12 hmoveto
          131 hlineto
          65 223 12 46 12 47 11 47 28 callgsubr
          14 -48 12 -48 15 -44 75 -223 rcurveline
          138 hlineto
          -192 484 17 51 rlineto
          42 14 27 30 49 hhcurveto
          11 14 -4 -3 9 hvcurveto
          25 105 rlineto
          6 -20 -19 4 -30 hhcurveto
          -113 -53 -66 -120 -45 hvcurveto
          -183 -529 rlineto
          endchar
        </CharString>
        <CharString name="uni0292">
          -124 210 -200 rmoveto
          120 104 82 146 106 -65 78 -113 5 hvcurveto
          155 205 rlineto
          73 -372 -108 209 vlineto
          -158 -209 46 -67 rlineto
          9 22 10 4 27 hhcurveto
          63 39 -37 -63 -71 -44 -42 -59 -54 -40 25 30 -33 hvcurveto
          -62 -85 rlineto
          -44 46 63 -37 96 hhcurveto
          endchar
        </CharString>
        <CharString name="uni0294">
          -136 131 45 callsubr
          266 hlineto
          92 70 65 65 111 vvcurveto
          135 -101 68 -119 -98 -66 -40 -49 -47 vhcurveto
          68 -87 rlineto
          36 33 42 29 53 hhcurveto
          61 37 -36 -62 -68 -43 -47 -114 -73 hvcurveto
          -318 vlineto
          endchar
        </CharString>
        <CharString name="uni0295">
          -83 198 hmoveto
          136 318 hlineto
          -114 73 -43 47 68 vvcurveto
          62 42 36 66 49 39 -29 -36 30 vhcurveto
          68 87 rlineto
          49 -44 -64 40 -92 hhcurveto
          -125 -106 -68 -135 -111 66 -65 92 -70 hvcurveto
          -266 vlineto
          endchar
        </CharString>
        <CharString name="uni02A4">
          349 endchar
        </CharString>
        <CharString name="uni02A6">
          13 endchar
        </CharString>
        <CharString name="uni02A7">
          13 409 -23 callgsubr
          -13 vhcurveto
          -25 -101 rlineto
          -8 20 26 -6 39 hhcurveto
          -156 188 -83 callsubr
          endchar
        </CharString>
        <CharString name="uni02B9">
          -287 endchar
        </CharString>
        <CharString name="uni02C8">
          -437 22 539 rmoveto
          98 hlineto
          6 203 rlineto
          -110 hlineto
          6 -203 rlineto
          endchar
        </CharString>
        <CharString name="uni02D0">
          -287 237 399 rmoveto
          -182 hlineto
          63 -156 -63 -156 rlineto
          182 hlineto
          -63 156 63 156 rlineto
          endchar
        </CharString>
        <CharString name="uni0302">
          -127 -79 callgsubr
          endchar
        </CharString>
        <CharString name="uni0302.cap">
          -107 -65 callsubr
          endchar
        </CharString>
        <CharString name="uni0304">
          -146 -2 callgsubr
          endchar
        </CharString>
        <CharString name="uni0304.cap">
          -149 -13 callgsubr
          endchar
        </CharString>
        <CharString name="uni0306">
          572 -5 callsubr
        </CharString>
        <CharString name="uni0306.cap">
          -1 -66 callgsubr
          endchar
        </CharString>
        <CharString name="uni0307">
          572 24 callgsubr
        </CharString>
        <CharString name="uni0307.cap">
          -1 22 callsubr
          endchar
        </CharString>
        <CharString name="uni0308">
          -107 -99 callsubr
          endchar
        </CharString>
        <CharString name="uni0308.cap">
          -110 -96 callsubr
          endchar
        </CharString>
        <CharString name="uni030A">
          563 vmoveto
          -45 callgsubr
          endchar
        </CharString>
        <CharString name="uni030A.cap">
          697 vmoveto
          29 callgsubr
          52 rmoveto
          47 callsubr
          48 callgsubr
          hvcurveto
          endchar
        </CharString>
        <CharString name="uni030B">
          -52 2 callgsubr
        </CharString>
        <CharString name="uni030B.cap">
          -62 695 rmoveto
          119 143 -88 49 -99 -159 68 -33 rlineto
          183 hmoveto
          119 143 -87 49 -100 -159 68 -33 rlineto
          endchar
        </CharString>
        <CharString name="uni030C">
          -70 -78 callgsubr
          endchar
        </CharString>
        <CharString name="uni030C.cap">
          -74 -61 callgsubr
          endchar
        </CharString>
        <CharString name="uni031E">
          -37 -256 rmoveto
          73 105 69 67 -211 -67 69 -105 hlineto
          endchar
        </CharString>
        <CharString name="uni0327">
          -100 -11 callgsubr
        </CharString>
        <CharString name="uni032E">
          -233 -5 callsubr
        </CharString>
        <CharString name="uni0331">
          -146 -32 callgsubr
        </CharString>
        <CharString name="uni0361">
          -421 538 rmoveto
          74 129 163 26 128 hhcurveto
          129 163 -26 -74 129 hvcurveto
          36 64 rlineto
          83 -136 -159 41 -162 hhcurveto
          -161 -159 -41 -83 -136 hvcurveto
          36 -64 rlineto
          endchar
        </CharString>
        <CharString name="uni0394.math">
          53 endchar
        </CharString>
        <CharString name="uni03A9.math">
          127 endchar
        </CharString>
        <CharString name="uni03BC.math">
          10 endchar
        </CharString>
        <CharString name="uni05B0">
          -62 callgsubr
          -102 vmoveto
          -1 callsubr
          endchar
        </CharString>
        <CharString name="uni05B1">
          -62 callgsubr
          104 hmoveto
          -87 callsubr
          104 hmoveto
          -87 callsubr
          -157 -102 rmoveto
          -1 callsubr
          157 hmoveto
          -1 callsubr
          endchar
        </CharString>
        <CharString name="uni05B2">
          6 callsubr
          166 13 callsubr
        </CharString>
        <CharString name="uni05B3">
          6 callsubr
          66 hlineto
          -5 51 callgsubr
          -6 100 rlineto
          67 13 callsubr
        </CharString>
        <CharString name="uni05B4">
          -62 callgsubr
          endchar
        </CharString>
        <CharString name="uni05B5">
          -62 callgsubr
          107 hmoveto
          -87 callsubr
          endchar
        </CharString>
        <CharString name="uni05B6">
          -62 callgsubr
          107 hmoveto
          -87 callsubr
          -54 -93 rmoveto
          31 callsubr
          50 callgsubr
          20 13 17 19 18 -13 16 -20 hvcurveto
          endchar
        </CharString>
        <CharString name="uni05B7">
          196 -69 37 callgsubr
          166 39 hlineto
          endchar
        </CharString>
        <CharString name="uni05B8">
          196 -69 37 callgsubr
          66 hlineto
          -5 51 callgsubr
          -6 100 rlineto
          67 39 hlineto
          endchar
        </CharString>
        <CharString name="uni05B9">
          64 587 -7 callgsubr
        </CharString>
        <CharString name="uni05BA">
          64 516 -40 callgsubr
          endchar
        </CharString>
        <CharString name="uni05BB">
          -62 callgsubr
          70 -68 -72 callgsubr
          70 -68 -72 callgsubr
          endchar
        </CharString>
        <CharString name="uni05BC">
          64 325 -100 callgsubr
        </CharString>
        <CharString name="uni05BE">
          -250 45 463 rmoveto
          239 108 -239 45 callgsubr
        </CharString>
        <CharString name="uni05BF">
          221 576 rmoveto
          -189 -53 189 53 hlineto
          endchar
        </CharString>
        <CharString name="uni05C1">
          64 591 -7 callgsubr
        </CharString>
        <CharString name="uni05C2">
          64 591 -7 callgsubr
        </CharString>
        <CharString name="uni05C7">
          132 -69 rmoveto
          -102 -39 41 hlineto
          -12 51 callgsubr
          -13 100 rlineto
          42 39 hlineto
          endchar
        </CharString>
        <CharString name="uni05D0">
          -85 callgsubr
          endchar
        </CharString>
        <CharString name="uni05D1">
          -9 callsubr
          endchar
        </CharString>
        <CharString name="uni05D2">
          -35 callsubr
          endchar
        </CharString>
        <CharString name="uni05D3">
          -3 callgsubr
          endchar
        </CharString>
        <CharString name="uni05D4">
          -21 callgsubr
          endchar
        </CharString>
        <CharString name="uni05D5">
          -320 61 hmoveto
          -6 callgsubr
          endchar
        </CharString>
        <CharString name="uni05D6">
          -4 callsubr
          endchar
        </CharString>
        <CharString name="uni05D7">
          16 371 40 callsubr
          -318 -571 145 463 133 hlineto
          45 23 -27 -51 hvcurveto
          -385 144 378 vlineto
          135 -70 58 -102 vhcurveto
          endchar
        </CharString>
        <CharString name="uni05D8">
          -37 callsubr
          endchar
        </CharString>
        <CharString name="uni05D9">
          5 callgsubr
          endchar
        </CharString>
        <CharString name="uni05DA">
          -1 callgsubr
          endchar
        </CharString>
        <CharString name="uni05DB">
          -22 callsubr
          endchar
        </CharString>
        <CharString name="uni05DC">
          -2 callsubr
          endchar
        </CharString>
        <CharString name="uni05DD">
          13 369 40 callsubr
          -317 -571 489 4 callgsubr
          -172 -463 rmoveto
          355 132 vlineto
          43 19 callgsubr
          -282 -200 vlineto
          endchar
        </CharString>
        <CharString name="uni05DE">
          -53 callsubr
          endchar
        </CharString>
        <CharString name="uni05DF">
          -320 61 -200 rmoveto
          144 654 hlineto
          -22 callgsubr
          -654 vlineto
          endchar
        </CharString>
        <CharString name="uni05E0">
          -7 callsubr
          endchar
        </CharString>
        <CharString name="uni05E1">
          -40 callsubr
          endchar
        </CharString>
        <CharString name="uni05E2">
          -2 392 40 callsubr
          -253 8 -128 -102 -52 vhcurveto
          -100 433 11 callsubr
          115 -467 -159 -30 20 -113 214 42 rlineto
          287 60 5 186 322 vvcurveto
          -143 hlineto
          endchar
        </CharString>
        <CharString name="uni05E3">
          -30 callsubr
          endchar
        </CharString>
        <CharString name="uni05E4">
          -42 callgsubr
          endchar
        </CharString>
        <CharString name="uni05E5">
          -46 512 40 callsubr
          -137 hlineto
          -117 -279 -88 279 rlineto
          -138 hlineto
          242 -771 rlineto
          138 hlineto
          -99 314 199 457 rlineto
          endchar
        </CharString>
        <CharString name="uni05E6">
          -13 callsubr
          endchar
        </CharString>
        <CharString name="uni05E7">
          -38 callsubr
          endchar
        </CharString>
        <CharString name="uni05E8">
          3 callgsubr
          endchar
        </CharString>
        <CharString name="uni05E9">
          104 639 404 -101 callsubr
          endchar
        </CharString>
        <CharString name="uni05EA">
          -25 callsubr
          endchar
        </CharString>
        <CharString name="uni1E06">
          -52 callgsubr
          -49 -292 -60 callgsubr
        </CharString>
        <CharString name="uni1E07">
          -46 callsubr
          -149 -286 -60 callgsubr
        </CharString>
        <CharString name="uni1E0C">
          -68 callsubr
          96 -334 -99 callgsubr
        </CharString>
        <CharString name="uni1E0D">
          -81 callgsubr
          20 -323 -99 callgsubr
        </CharString>
        <CharString name="uni1E0E">
          -68 callsubr
          -50 -297 -60 callgsubr
        </CharString>
        <CharString name="uni1E0F">
          -81 callgsubr
          -126 -286 -60 callgsubr
        </CharString>
        <CharString name="uni1E20">
          56 216 -13 callgsubr
          147 -736 -91 callsubr
        </CharString>
        <CharString name="uni1E21">
          -49 126 -2 callgsubr
          117 -806 -105 callsubr
        </CharString>
        <CharString name="uni1E24">
          -29 callgsubr
          255 -89 callsubr
        </CharString>
        <CharString name="uni1E25">
          -80 callsubr
          228 -89 callsubr
        </CharString>
        <CharString name="uni1E2A">
          -29 callgsubr
          255 -233 rmoveto
          -3 callsubr
        </CharString>
        <CharString name="uni1E2B">
          -80 callsubr
          228 -233 rmoveto
          -3 callsubr
        </CharString>
        <CharString name="uni1E32">
          -57 callgsubr
          253 -89 callsubr
        </CharString>
        <CharString name="uni1E33">
          -57 callsubr
          224 -89 callsubr
        </CharString>
        <CharString name="uni1E34">
          -57 callgsubr
          107 -32 callgsubr
        </CharString>
        <CharString name="uni1E35">
          -57 callsubr
          78 -32 callgsubr
        </CharString>
        <CharString name="uni1E62">
          -27 276 -12 -96 callgsubr
          3 -211 -99 callgsubr
        </CharString>
        <CharString name="uni1E63">
          -140 211 -12 -93 callsubr
          16 -211 -99 callgsubr
        </CharString>
        <CharString name="uni1E6C">
          -10 callsubr
          69 -89 callsubr
        </CharString>
        <CharString name="uni1E6D">
          -72 callsubr
          -32 -211 -99 callgsubr
        </CharString>
        <CharString name="uni1E6E">
          -10 callsubr
          -77 -32 callgsubr
        </CharString>
        <CharString name="uni1E6F">
          -72 callsubr
          -178 -174 -60 callgsubr
        </CharString>
        <CharString name="uni1E7E">
          -19 callgsubr
          80 -89 callsubr
        </CharString>
        <CharString name="uni1E7F">
          -20 callsubr
          78 -89 callsubr
        </CharString>
        <CharString name="uni1E92">
          -34 callgsubr
          245 -89 callsubr
        </CharString>
        <CharString name="uni1E93">
          -36 callgsubr
          205 -89 callsubr
        </CharString>
        <CharString name="uni1E94">
          -34 callgsubr
          99 -32 callgsubr
        </CharString>
        <CharString name="uni1E95">
          -36 callgsubr
          59 -32 callgsubr
        </CharString>
        <CharString name="uni1E96">
          -80 callsubr
          82 -32 callgsubr
        </CharString>
        <CharString name="uni1EA0">
          -11 573 hmoveto
          -95 callgsubr
          145 hlineto
          -365 -93 callgsubr
          73 -346 23 callsubr
        </CharString>
        <CharString name="uni1EA1">
          -55 190 -12 -107 callgsubr
          20 -317 -99 callgsubr
        </CharString>
        <CharString name="uni1EB8">
          -34 79 hmoveto
          -86 callgsubr
          211 -89 callsubr
        </CharString>
        <CharString name="uni1EB9">
          -65 477 270 -106 callgsubr
          98 -376 23 callsubr
        </CharString>
        <CharString name="uni1ECC">
          102 341 -12 -105 callgsubr
          1 -330 -99 callgsubr
        </CharString>
        <CharString name="uni1ECD">
          -26 276 -12 -103 callsubr
          1 -322 -99 callgsubr
        </CharString>
        <CharString name="uni200E">
          32 callsubr
          -191 -36 191 hlineto
          -63 -66 25 -25 rlineto
          endchar
        </CharString>
        <CharString name="uni200F">
          44 callgsubr
          192 36 -193 38 callgsubr
          endchar
        </CharString>
        <CharString name="uni2010">
          -8 callgsubr
        </CharString>
        <CharString name="uni2010.lat">
          -8 callgsubr
        </CharString>
        <CharString name="uni202D">
          -31 767 rmoveto
          104 108 -104 109 -26 -27 61 -63 rlineto
          -160 -36 162 hlineto
          -63 -66 26 -25 rlineto
          97 hmoveto
          34 callgsubr
          82 -82 -82 -83 25 -25 rlineto
          endchar
        </CharString>
        <CharString name="uni202E">
          -66 805 rmoveto
          25 26 -80 83 80 81 -25 26 -105 -107 105 -109 rlineto
          97 hmoveto
          28 26 -63 64 rlineto
          161 34 -161 hlineto
          63 66 -28 26 -102 -107 102 -109 rlineto
          endchar
        </CharString>
        <CharString name="uni210A">
          0 261 -198 rmoveto
          157 89 71 127 hvcurveto
          495 -110 vlineto
          -10 -46 35 callsubr
          40 -38 -40 18 -50 hhcurveto
          -106 -104 -99 -152 -145 80 -99 123 48 44 21 31 34 hvcurveto
          -3 -67 rlineto
          -52 -5 -30 -36 -75 hhcurveto
          -41 -50 11 27 -47 hvcurveto
          -46 -90 rlineto
          -37 57 72 -18 55 hhcurveto
          21 320 rmoveto
          -61 -38 50 86 86 45 51 54 29 31 -9 -26 28 hvcurveto
          -188 vlineto
          -36 -28 -26 -14 -34 hhcurveto
          endchar
        </CharString>
        <CharString name="uni2215">
          -53 callgsubr
        </CharString>
        <CharString name="uni2215.lat">
          -53 callgsubr
        </CharString>
        <CharString name="uni2219">
          -54 261 241 -75 callgsubr
        </CharString>
        <CharString name="uniFB2A">
          -64 callsubr
          endchar
        </CharString>
        <CharString name="uniFB2B">
          -64 callgsubr
          endchar
        </CharString>
        <CharString name="uniFB2C">
          -64 callsubr
          -262 -117 -100 callgsubr
        </CharString>
        <CharString name="uniFB2D">
          -64 callgsubr
          -262 -117 -100 callgsubr
        </CharString>
        <CharString name="uniFB2E">
          -39 callgsubr
          166 39 hlineto
          endchar
        </CharString>
        <CharString name="uniFB2F">
          -39 callgsubr
          66 hlineto
          -5 51 callgsubr
          -6 100 rlineto
          67 39 hlineto
          endchar
        </CharString>
        <CharString name="uniFB30">
          -85 callgsubr
          -306 127 -100 callgsubr
        </CharString>
        <CharString name="uniFB31">
          -9 callsubr
          -247 189 -29 callsubr
        </CharString>
        <CharString name="uniFB32">
          -35 callsubr
          -278 261 rmoveto
          21 12 17 19 1 callgsubr
          hvcurveto
          endchar
        </CharString>
        <CharString name="uniFB33">
          -3 callgsubr
          -119 -73 callgsubr
        </CharString>
        <CharString name="uniFB34">
          -21 callgsubr
          239 -73 callgsubr
        </CharString>
        <CharString name="uniFB35">
          -320 61 hmoveto
          -6 callgsubr
          -69 -73 callgsubr
        </CharString>
        <CharString name="uniFB36">
          -4 callsubr
          -71 -73 callgsubr
        </CharString>
        <CharString name="uniFB38">
          -37 callsubr
          205 357 -100 callgsubr
        </CharString>
        <CharString name="uniFB39">
          5 callgsubr
          -69 218 -100 callgsubr
        </CharString>
        <CharString name="uniFB3A">
          -1 callgsubr
          -152 532 -100 callgsubr
        </CharString>
        <CharString name="uniFB3B">
          -22 callsubr
          130 -73 callgsubr
        </CharString>
        <CharString name="uniFB3C">
          -2 callsubr
          -5 -274 -29 callsubr
        </CharString>
        <CharString name="uniFB3E">
          -53 callsubr
          -223 7 -29 callsubr
        </CharString>
        <CharString name="uniFB40">
          -7 callsubr
          53 -73 callgsubr
        </CharString>
        <CharString name="uniFB41">
          -40 callsubr
          73 222 -100 callgsubr
        </CharString>
        <CharString name="uniFB43">
          -30 callsubr
          -13 -239 -100 callgsubr
        </CharString>
        <CharString name="uniFB44">
          -42 callgsubr
          243 325 -100 callgsubr
        </CharString>
        <CharString name="uniFB46">
          -13 callsubr
          -358 -356 -29 callsubr
        </CharString>
        <CharString name="uniFB47">
          -38 callsubr
          244 547 -100 callgsubr
        </CharString>
        <CharString name="uniFB48">
          3 callgsubr
          -137 -73 callgsubr
        </CharString>
        <CharString name="uniFB49">
          104 639 404 -101 callsubr
          -262 -117 -100 callgsubr
        </CharString>
        <CharString name="uniFB4A">
          -25 callsubr
          313 349 -100 callgsubr
        </CharString>
        <CharString name="uniFB4B">
          -320 110 708 rmoveto
          -20 -14 -17 -18 -98 callsubr
          -49 -708 rmoveto
          -6 callgsubr
          endchar
        </CharString>
        <CharString name="upsilonlatin">
          -24 277 -12 rmoveto
          151 86 107 108 82 -37 63 -37 36 hvcurveto
          3 84 108 -209 -89 vlineto
          40 -46 22 -48 -80 vvcurveto
          -74 -32 -59 -68 -67 -32 59 74 80 22 48 39 46 vhcurveto
          89 -209 -108 85 -3 vlineto
          -37 -36 -37 -63 -82 vvcurveto
          -108 85 -107 151 vhcurveto
          endchar
        </CharString>
        <CharString name="v">
          -20 callsubr
          endchar
        </CharString>
        <CharString name="w">
          188 150 hmoveto
          157 hlineto
          47 208 10 46 8 46 9 53 28 callgsubr
          9 -53 9 -45 9 -46 50 -209 rcurveline
          160 hlineto
          121 495 rlineto
          -127 hlineto
          -51 -238 -9 -49 -6 -47 -9 -50 20 callgsubr
          -10 50 -9 47 -12 49 -59 238 rcurveline
          -120 hlineto
          -58 -238 -12 -47 -9 -49 -9 -50 20 callgsubr
          -8 50 -6 47 -9 49 -52 238 rcurveline
          -136 hlineto
          126 -495 rlineto
          endchar
        </CharString>
        <CharString name="x">
          -76 14 hmoveto
          142 hlineto
          43 87 13 29 13 30 14 28 28 callgsubr
          16 -28 15 -30 16 -29 53 -87 rcurveline
          146 hlineto
          -153 242 144 253 rlineto
          -142 hlineto
          -38 -85 -11 -27 -13 -29 -11 -28 20 callgsubr
          -15 28 -15 29 -13 27 -48 85 rcurveline
          -146 hlineto
          144 -237 -154 -258 rlineto
          endchar
        </CharString>
        <CharString name="y">
          -66 116 -197 -81 callsubr
        </CharString>
        <CharString name="yacute">
          -66 273 -67 callgsubr
          -157 -770 -81 callsubr
        </CharString>
        <CharString name="ydieresis">
          -66 159 -99 callsubr
          -257 -769 -81 callsubr
        </CharString>
        <CharString name="yen">
          -48 callgsubr
        </CharString>
        <CharString name="yen.heb">
          -39 endchar
        </CharString>
        <CharString name="yen.lat">
          -48 callgsubr
        </CharString>
        <CharString name="z">
          -36 callgsubr
          endchar
        </CharString>
        <CharString name="zcaron">
          -124 179 -78 callgsubr
          -143 -577 rmoveto
          -51 callgsubr
          endchar
        </CharString>
        <CharString name="zero">
          -74 callsubr
        </CharString>
        <CharString name="zero.heb">
          -74 callsubr
        </CharString>
        <CharString name="zero.lat">
          -74 callsubr
        </CharString>
        <CharString name="zero.pnumheb">
          -48 endchar
        </CharString>
        <CharString name="zero.pnumlat">
          -78 endchar
        </CharString>
        <CharString name="zero.slash">
          -79 endchar
        </CharString>
        <CharString name="zero.slashpnum">
          -79 endchar
        </CharString>
      <CharString index="0">
        rmoveto
        57 48 27 37 42 hvcurveto
        4 hlineto
        10 -52 rlineto
        111 286 39 callsubr
        -67 74 -125 -78 -71 -28 -37 -60 vhcurveto
        49 -90 rlineto
        27 47 43 19 44 hhcurveto
        58 21 -34 -46 3 hvcurveto
        -198 -21 -85 -38 callgsubr
        46 106 rmoveto
        -37 -25 17 36 41 38 32 114 15 hvcurveto
        -95 vlineto
        -28 -30 -25 -18 -35 hhcurveto
        return
      </CharString>
      <CharString index="1">
        rmoveto
        -82 callsubr
        60 64 21 34 50 vhcurveto
        -33 callgsubr
        -63 -62 31 84 -14 hvcurveto
        306 19 callsubr
        25 25 vvcurveto
        -310 29 rmoveto
        74 14 45 29 46 hhcurveto
        61 27 -41 -62 hvcurveto
        46 callsubr
        return
      </CharString>
      <CharString index="2">
        rmoveto
        -31 callsubr
        -77 callsubr
        -212 120 -129 174 hvcurveto
        -1 119 rmoveto
        -93 -60 86 136 -46 callgsubr
        -136 -59 -86 -94 hvcurveto
        return
      </CharString>
      <CharString index="3">
        -106 callgsubr
        endchar
      </CharString>
      <CharString index="4">
        rmoveto
        -106 callsubr
      </CharString>
      <CharString index="5">
        -84 callsubr
        -83 callgsubr
        hvcurveto
        return
      </CharString>
      <CharString index="6">
        -103 callsubr
        endchar
      </CharString>
      <CharString index="7">
        rmoveto
        -20 -14 -18 -17 -98 callgsubr
      </CharString>
      <CharString index="8">
        rmoveto
        27 callgsubr
      </CharString>
      <CharString index="9">
        -98 callsubr
        endchar
      </CharString>
      <CharString index="10">
        -56 242 -12 rmoveto
        126 106 67 118 83 -55 52 -74 21 hvcurveto
        4 vlineto
        69 28 39 47 67 vvcurveto
        111 -86 62 -129 -77 -63 -32 -49 -57 vhcurveto
        70 -84 rlineto
        36 39 36 21 46 hhcurveto
        53 31 -27 -48 -53 -38 -37 -117 hvcurveto
        -98 vlineto
        140 36 -37 -59 -52 -44 -30 -64 -57 -48 28 38 -38 hvcurveto
        -64 -87 rlineto
        -52 46 71 -38 103 hhcurveto
        endchar
      </CharString>
      <CharString index="11">
        rmoveto
        152 90 92 108 93 -52 51 -79 33 hvcurveto
        -84 34 rlineto
        -56 23 -45 16 44 vvcurveto
        40 35 24 54 53 42 -19 -34 43 vhcurveto
        69 87 rlineto
        54 -54 -77 31 -76 hhcurveto
        -133 -95 -85 -106 -95 65 -54 67 -28 hvcurveto
        86 -37 rlineto
        58 -24 39 -14 -45 vvcurveto
        -43 -34 -27 -65 -56 -61 28 42 -47 vhcurveto
        -79 -94 rlineto
        -62 65 89 -33 86 hhcurveto
        return
      </CharString>
      <CharString index="12">
        -207 653 rlineto
        -163 hlineto
        -208 -653 rlineto
        140 hlineto
        44 163 40 callgsubr
        hlineto
        44 -163 rlineto
        return
      </CharString>
      <CharString index="13">
        -43 -30 -30 -47 -43 33 -27 40 3 3 0 1 3 hvcurveto
        -59 -29 -37 -59 -30 vhcurveto
        31 -60 rlineto
        92 46 45 70 92 vvcurveto
        79 -31 45 -58 vhcurveto
        return
      </CharString>
      <CharString index="14">
        269 rmoveto
        18 67 19 67 18 75 16 70 28 callgsubr
        18 -69 18 -76 19 -67 18 -67 rcurveline
        -148 hlineto
        return
      </CharString>
      <CharString index="15">
        114 50 70 86 3 hvcurveto
        -78 13 rlineto
        -44 -7 -27 -39 -55 hhcurveto
        -55 -27 39 44 -7 hvcurveto
        -78 -13 rlineto
        -86 3 51 -70 113 hhcurveto
        return
      </CharString>
      <CharString index="16">
        -216 -101 callsubr
        return
      </CharString>
      <CharString index="17">
        rmoveto
        163 91 92 217 hvcurveto
        356 -132 -369 vlineto
        -132 -47 -45 -75 -75 -45 45 132 vhcurveto
        369 -137 -356 vlineto
        -217 94 -92 163 vhcurveto
        endchar
      </CharString>
      <CharString index="18">
        -41 callsubr
        -41 callgsubr
        return
      </CharString>
      <CharString index="19">
        -56 299 396 rmoveto
        -42 -55 -26 -45 -35 hvcurveto
        158 6 59 54 73 hhcurveto
        38 39 -21 -25 23 hvcurveto
        72 82 rlineto
        40 -39 -60 35 -81 hhcurveto
        -133 -122 -106 -240 -220 114 -94 123 113 95 81 131 134 -79 62 -109 hvcurveto
        -22 -305 rmoveto
        -50 -43 37 104 -13 hvcurveto
        49 30 38 18 34 hhcurveto
        53 36 -30 -69 -74 -39 -35 -46 hvcurveto
        endchar
      </CharString>
      <CharString index="20">
        -94 callgsubr
        endchar
      </CharString>
      <CharString index="21">
        414 -86 callsubr
        hlineto
        return
      </CharString>
      <CharString index="22">
        38 588 hmoveto
        -137 207 120 364 rlineto
        -138 hlineto
        -40 -148 -27 -91 -71 109 -80 130 11 callsubr
        92 -151 -30 -77 -111 -343 rlineto
        137 hlineto
        89 291 188 -291 rlineto
        153 hlineto
        return
      </CharString>
      <CharString index="23">
        574 rmoveto
        76 42 50 99 2 hvcurveto
        -86 5 rlineto
        -40 -3 -12 -19 -21 -34 -34 67 -64 hhcurveto
        -76 -42 -50 -99 -2 hvcurveto
        86 -5 rlineto
        41 3 12 18 21 34 34 -67 64 hhcurveto
        return
      </CharString>
      <CharString index="24">
        -45 -32 -30 -43 -43 32 -30 45 return
      </CharString>
      <CharString index="25">
        -86 callgsubr
        endchar
      </CharString>
      <CharString index="26">
        -9 243 -12 rmoveto
        49 50 27 36 35 hvcurveto
        4 hlineto
        10 -51 rlineto
        111 703 -136 -172 hlineto
        5 -77 rlineto
        32 -35 -34 21 -55 hhcurveto
        -106 -101 -69 callsubr
        return
      </CharString>
      <CharString index="27">
        -56 245 -12 rmoveto
        122 108 81 140 136 -92 62 -109 -29 -21 -6 -11 -25 hvcurveto
        11 131 rlineto
        236 115 -354 hlineto
        -18 -319 62 -40 rlineto
        25 38 21 9 38 hhcurveto
        62 43 -38 -67 -69 -45 -38 -67 -57 -46 29 36 -38 hvcurveto
        -62 -87 rlineto
        -49 49 70 -40 103 hhcurveto
        endchar
      </CharString>
      <CharString index="28">
        562 rmoveto
        124 96 rlineto
        -73 callsubr
        rlineto
        return
      </CharString>
      <CharString index="29">
        577 rmoveto
        139 hlineto
        109 132 -52 49 -124 -95 rlineto
        -5 hlineto
        -124 95 -52 -49 109 -132 rlineto
        return
      </CharString>
      <CharString index="30">
        rmoveto
        -82 callgsubr
      </CharString>
      <CharString index="31">
        -56 38 hmoveto
        441 115 -137 hlineto
        -30 -44 -3 -4 -33 hvcurveto
        112 116 101 115 109 vvcurveto
        121 -83 79 -124 -90 -59 -35 -65 -61 vhcurveto
        75 -74 rlineto
        35 32 38 31 46 hhcurveto
        60 35 -37 -63 -93 -113 -109 -166 -159 hvcurveto
        -79 vlineto
        endchar
      </CharString>
      <CharString index="32">
        rmoveto
        27 callsubr
      </CharString>
      <CharString index="33">
        rmoveto
        84 71 33 63 54 hvcurveto
        -73 86 rlineto
        -37 -33 -43 -26 -55 hhcurveto
        -100 -65 82 139 136 72 82 95 49 36 -22 -31 33 hvcurveto
        73 88 rlineto
        44 -43 -67 40 -84 hhcurveto
        -165 -140 -126 -216 -218 136 -117 165 hvcurveto
        endchar
      </CharString>
      <CharString index="34">
        332 -100 callgsubr
      </CharString>
      <CharString index="35">
        rmoveto
        -87 callsubr
        return
      </CharString>
      <CharString index="36">
        135 146 rlineto
        97 vlineto
        -135 146 -52 -42 112 -153 -112 -153 52 -41 rlineto
        return
      </CharString>
      <CharString index="37">
        -56 499 260 rmoveto
        -76 376 -165 hlineto
        -239 -386 rlineto
        -94 277 -156 127 156 76 104 vlineto
        -348 hmoveto
        94 152 18 35 18 34 16 35 28 callgsubr
        -2 -39 -3 -61 -39 vvcurveto
        -117 -145 vlineto
        endchar
      </CharString>
      <CharString index="38">
        rmoveto
        291 88 -291 -88 hlineto
        return
      </CharString>
      <CharString index="39">
        -123 228 313 rmoveto
        108 88 83 118 117 -88 84 -108 -109 -88 -84 -117 -118 88 -83 109 hvcurveto
        47 vmoveto
        -84 -61 61 93 93 61 61 84 84 60 -61 -93 -93 -60 -61 -84 hvcurveto
        -80 57 rmoveto
        55 61 31 hlineto
        31 -61 rlineto
        58 hlineto
        -43 77 rlineto
        24 11 12 21 23 vvcurveto
        45 -35 20 -46 vhcurveto
        -87 -197 hlineto
        55 100 rmoveto
        55 22 vlineto
        22 10 -11 -16 -16 -11 -12 -22 hvcurveto
        -21 hlineto
        endchar
      </CharString>
      <CharString index="40">
        573 rmoveto
        177 156 -25 callgsubr
        rlineto
        return
      </CharString>
      <CharString index="41">
        699 rmoveto
        99 53 49 86 9 hvcurveto
        -75 13 rlineto
        -42 -9 -30 -26 -47 hhcurveto
        -46 -30 26 42 -9 hvcurveto
        -75 -13 rlineto
        -86 9 53 -49 98 hhcurveto
        return
      </CharString>
      <CharString index="42">
        -56 86 hmoveto
        81 hlineto
        23 190 rlineto
        108 hlineto
        -23 -190 rlineto
        80 hlineto
        23 190 rlineto
        95 88 -85 hlineto
        15 116 rlineto
        90 88 -79 hlineto
        20 168 rlineto
        -79 hlineto
        -22 -168 rlineto
        46 callgsubr
        20 168 rlineto
        -79 hlineto
        -21 -168 rlineto
        -91 -88 80 hlineto
        -15 -116 rlineto
        -85 -88 75 hlineto
        -23 -190 rlineto
        114 278 rmoveto
        15 116 rlineto
        108 hlineto
        -15 -116 rlineto
        45 callgsubr
      </CharString>
      <CharString index="43">
        104 98 620 -40 callgsubr
        541 -91 callgsubr
        return
      </CharString>
      <CharString index="44">
        137 236 hlineto
        196 417 rlineto
        -143 hlineto
        -62 -156 -19 -49 -19 -45 -19 -50 20 callgsubr
        -19 50 -18 45 -18 49 -62 156 rcurveline
        -147 hlineto
        197 -417 rlineto
        -236 vlineto
        endchar
      </CharString>
      <CharString index="45">
        64 -71 -72 callgsubr
        return
      </CharString>
      <CharString index="46">
        703 rmoveto
        148 hlineto
        92 111 -59 37 -105 -85 35 callsubr
        -105 85 -59 -37 92 -111 rlineto
        return
      </CharString>
      <CharString index="47">
        -69 callgsubr
        endchar
      </CharString>
      <CharString index="48">
        80 hlineto
        354 677 rlineto
        -80 hlineto
        return
      </CharString>
      <CharString index="49">
        -241 43 -152 rmoveto
        60 hlineto
        87 39 33 108 hvcurveto
        71 -9 39 64 vvcurveto
        36 20 37 66 2 vhcurveto
        81 vlineto
        -66 1 -20 37 36 64 9 39 71 vvcurveto
        108 -39 33 -87 vhcurveto
        -60 -73 20 hlineto
        44 12 -16 -57 hvcurveto
        -55 -4 -49 -62 vvcurveto
        -74 22 -30 50 -12 vhcurveto
        -4 vlineto
        -50 -12 -22 -30 -73 -62 4 -50 -55 vvcurveto
        -57 -12 -16 -44 vhcurveto
        -20 -73 hlineto
        endchar
      </CharString>
      <CharString index="50">
        30 37 callsubr
        180 hlineto
        82 106 165 -286 rlineto
        150 hlineto
        -234 394 199 259 rlineto
        -151 hlineto
        -207 -277 rlineto
        -4 277 -11 callsubr
        return
      </CharString>
      <CharString index="51">
        -222 131 371 rmoveto
        38 31 18 24 25 hvcurveto
        4 hlineto
        9 -34 rlineto
        78 190 hlineto
        97 -48 49 -83 -52 -50 -19 -25 -42 vhcurveto
        35 -64 rlineto
        18 31 32 13 29 hhcurveto
        34 14 -18 -31 3 hvcurveto
        -132 -12 -57 -37 -70 vvcurveto
        -55 39 -44 62 vhcurveto
        32 74 rmoveto
        -25 -15 11 22 25 24 22 72 8 hvcurveto
        -60 vlineto
        -18 -19 -16 -10 -21 hhcurveto
        endchar
      </CharString>
      <CharString index="52">
        -56 463 183 rmoveto
        195 -266 -14 104 vvcurveto
        47 28 22 50 44 31 -18 -33 36 vhcurveto
        69 78 -38 41 -46 31 -63 9 rlinecurve
        101 -92 -103 vlineto
        -93 -18 -57 -67 -97 -183 266 8 -113 vvcurveto
        -48 -27 -26 -59 -50 -45 21 39 -50 vhcurveto
        -60 -93 47 -43 69 -26 59 -7 rlinecurve
        -100 92 104 vlineto
        101 20 54 73 96 vvcurveto
        endchar
      </CharString>
      <CharString index="53">
        183 58 rmoveto
        -71 callsubr
        return
      </CharString>
      <CharString index="54">
        -484 -170 -76 callsubr
      </CharString>
      <CharString index="55">
        24 79 hmoveto
        237 hlineto
        142 111 60 132 88 -52 49 -69 17 hvcurveto
        4 vlineto
        55 20 33 62 59 vvcurveto
        123 -103 39 -135 vhcurveto
        -219 31 callgsubr
        389 rmoveto
        158 75 vlineto
        74 37 -21 -55 -50 -34 -32 -78 hvcurveto
        -74 hlineto
        -283 vmoveto
        181 88 vlineto
        86 45 -25 -61 -64 -46 -31 -85 hvcurveto
        -88 hlineto
        return
      </CharString>
      <CharString index="56">
        394 108 -223 hlineto
        216 314 rlineto
        73 -362 -108 191 vlineto
        -216 -314 rlineto
        -73 vlineto
        return
      </CharString>
      <CharString index="57">
        -54 89 rlineto
        -21 -26 -33 -17 -34 hhcurveto
        -68 -50 58 90 90 49 59 73 26 22 -10 -21 24 hvcurveto
        65 88 rlineto
        31 -36 -47 23 -61 hhcurveto
        -135 -120 -95 -165 return
      </CharString>
      <CharString index="58">
        -56 162 hmoveto
        138 hlineto
        11 248 22 124 148 180 rrcurveto
        84 -437 -115 290 vlineto
        -121 -168 -39 29 callsubr
      </CharString>
      <CharString index="59">
        -56 193 45 callsubr
        149 155 67 -155 56 155 67 -125 hlineto
        149 297 14 callsubr
        -55 -139 -17 -44 -17 -44 -18 -44 20 callgsubr
        -18 44 -17 44 -16 44 -55 139 rcurveline
        -141 hlineto
        149 -297 rlineto
        -124 -67 154 -56 -154 -67 154 -149 hlineto
        endchar
      </CharString>
      <CharString index="60">
        49 50 28 73 47 hvcurveto
        -71 54 rlineto
        -37 -21 -24 -21 -28 -55 -36 77 -82 hhcurveto
        -48 -51 -27 -74 -47 hvcurveto
        72 -54 rlineto
        38 21 24 20 27 55 36 -77 82 hhcurveto
        return
      </CharString>
      <CharString index="61">
        136 60 81 93 94 59 -81 -136 return
      </CharString>
      <CharString index="62">
        84 44 45 58 57 -44 46 -84 -84 -44 -46 -57 -58 44 -45 84 hvcurveto
        -1 52 rmoveto
        -25 -20 20 31 30 20 21 25 26 20 -21 -30 -31 -20 -20 -26 hvcurveto
        return
      </CharString>
      <CharString index="63">
        -234 192 371 rmoveto
        40 44 13 24 35 hvcurveto
        -33 58 rlineto
        -15 -24 -24 -6 -26 hhcurveto
        -45 -34 21 52 -8 hvcurveto
        200 hlineto
        3 14 2 9 17 vvcurveto
        80 -42 77 -99 -84 -73 -67 -105 -108 74 -64 94 vhcurveto
        -76 203 rmoveto
        45 7 25 22 34 hhcurveto
        43 15 -33 -34 hvcurveto
        -124 hlineto
        endchar
      </CharString>
      <CharString index="64">
        -19 14 -17 20 return
      </CharString>
      <CharString index="65">
        -22 52 hmoveto
        237 hlineto
        140 93 94 162 hvcurveto
        60 vlineto
        154 -1 -81 101 -141 hhcurveto
        -210 hlineto
        -40 -180 -18 -103 37 -81 146 -3 rlinecurve
        22 90 -56 11 -15 24 10 49 rlinecurve
        19 85 rlineto
        72 hlineto
        76 35 -60 -80 hvcurveto
        -74 vlineto
        -88 -46 -53 -76 vhcurveto
        -203 46 callgsubr
        return
      </CharString>
      <CharString index="66">
        18 -12 17 -21 return
      </CharString>
      <CharString index="67">
        rmoveto
        -89 callgsubr
        -20 -14 -17 -18 35 callgsubr
        return
      </CharString>
      <CharString index="68">
        -85 callgsubr
        -188 -55 37 callgsubr
        return
      </CharString>
      <CharString index="69">
        -56 -105 vvcurveto
        -84 58 -64 89 vhcurveto
        return
      </CharString>
      <CharString index="70">
        -56 71 hmoveto
        398 111 -121 525 -101 hlineto
        -43 -27 -45 -17 -66 -12 rrcurveto
        -85 118 -384 -140 -111 vlineto
        endchar
      </CharString>
      <CharString index="71">
        -124 36 hmoveto
        -51 callgsubr
        return
      </CharString>
      <CharString index="72">
        137 495 -137 12 callgsubr
      </CharString>
      <CharString index="73">
        -38 37 hmoveto
        -51 callsubr
        return
      </CharString>
      <CharString index="74">
        -46 83 rlineto
        -21 -36 -34 -12 -39 hhcurveto
        return
      </CharString>
      <CharString index="75">
        -186 -60 callgsubr
      </CharString>
      <CharString index="76">
        34 35 24 18 39 hhcurveto
        46 21 -25 -74 hvcurveto
        return
      </CharString>
      <CharString index="77">
        rmoveto
        54 61 18 42 47 hvcurveto
        -50 callgsubr
        -164 106 -95 137 hvcurveto
        endchar
      </CharString>
      <CharString index="78">
        91 37 callsubr
        278 238 -278 42 callgsubr
        -255 -238 255 -11 callsubr
        return
      </CharString>
      <CharString index="79">
        131 250 hlineto
        75 -11 85 -7 71 vhcurveto
        4 hlineto
        66 -142 181 -339 rlineto
        140 653 -130 -248 hlineto
        -76 11 -88 6 -69 vhcurveto
        -4 hlineto
        -65 142 -181 339 rlineto
        -141 12 callsubr
        endchar
      </CharString>
      <CharString index="80">
        hvcurveto
        212 vlineto
        33 32 29 15 32 hhcurveto
        64 29 -49 -92 -106 -44 -48 -56 hvcurveto
        return
      </CharString>
      <CharString index="81">
        -241 132 -179 rmoveto
        83 137 49 144 176 vvcurveto
        176 -49 144 -83 137 vhcurveto
        -86 -36 rlineto
        74 -129 33 -148 -144 vvcurveto
        -143 -33 -149 -74 -129 vhcurveto
        86 -36 rlineto
        endchar
      </CharString>
      <CharString index="82">
        -93 90 -152 -179 68 -67 return
      </CharString>
      <CharString index="83">
        -247 121 226 rmoveto
        90 hlineto
        19 318 4 126 14 callsubr
        5 -126 19 -318 rlineto
        45 -238 -75 callgsubr
      </CharString>
      <CharString index="84">
        43 callsubr
        531 vlineto
        56 16 27 48 11 9 -3 -4 10 vhcurveto
        25 101 rlineto
        7 -18 -22 6 -35 hhcurveto
        -137 -43 -86 -107 hvcurveto
        -532 vlineto
        25 callsubr
        return
      </CharString>
      <CharString index="85">
        -12 117 rlineto
        -144 hlineto
        12 -117 rlineto
        return
      </CharString>
      <CharString index="86">
        -6 383 0 callsubr
        -301 -108 261 15 callsubr
        -335 hmoveto
        145 340 -125 hlineto
        -20 -67 rlineto
        -273 vlineto
        return
      </CharString>
      <CharString index="87">
        rmoveto
        -18 callsubr
        17 18 -4 -7 17 vhcurveto
        6 callgsubr
        return
      </CharString>
      <CharString index="88">
        -29 193 hmoveto
        164 hlineto
        199 653 rlineto
        -140 hlineto
        -82 -312 -19 -73 -14 -65 -21 -73 20 callgsubr
        -20 73 -14 65 -20 73 -83 312 rcurveline
        -145 hlineto
        199 -653 rlineto
        return
      </CharString>
      <CharString index="89">
        -219 181 403 rmoveto
        78 63 59 82 83 -63 59 -78 -79 -63 -59 -83 -82 63 -59 79 hvcurveto
        67 vmoveto
        -41 -28 30 44 45 28 30 41 40 28 -30 -45 -44 -28 -30 -40 hvcurveto
        endchar
      </CharString>
      <CharString index="90">
        192 125 108 221 222 -125 102 -200 hvcurveto
        return
      </CharString>
      <CharString index="91">
        -287 148 697 rmoveto
        -87 callgsubr
      </CharString>
      <CharString index="92">
        -287 144 500 -44 callsubr
      </CharString>
      <CharString index="93">
        -2 -9 -4 0 -5 hhcurveto
        -12 -14 10 30 hvcurveto
        564 -137 -558 vlineto
        -95 33 -62 95 return
      </CharString>
      <CharString index="94">
        724 rmoveto
        297 88 -297 -88 hlineto
        return
      </CharString>
      <CharString index="95">
        45 296 202 rmoveto
        40 451 -44 hlineto
        -139 -114 -55 -166 -154 115 -76 142 hvcurveto
        95 -282 54 callgsubr
        733 -137 -733 hlineto
        endchar
      </CharString>
      <CharString index="96">
        -237 rmoveto
        14 callgsubr
        28 66 rlineto
        -81 hlineto
        -47 -97 3 callsubr
        endchar
      </CharString>
      <CharString index="97">
        -298 195 -12 rmoveto
        38 callsubr
        hvcurveto
        -16 102 rlineto
        -14 callgsubr
        vhcurveto
        endchar
      </CharString>
      <CharString index="98">
        -94 -67 -75 -131 -131 67 -77 94 93 67 77 131 131 -67 75 -93 hvcurveto
        return
      </CharString>
      <CharString index="99">
        -250 43 204 rmoveto
        243 98 -243 -98 hlineto
        endchar
      </CharString>
      <CharString index="100">
        rmoveto
        -20 -14 -17 -18 -98 callgsubr
      </CharString>
      <CharString index="101">
        144 454 hlineto
        -22 callgsubr
        -454 vlineto
        return
      </CharString>
      <CharString index="102">
        rmoveto
        -48 -39 -32 -48 -51 40 -28 44 hvcurveto
        8 hlineto
        -51 -39 -46 -70 -25 vhcurveto
        29 -74 rlineto
        110 35 61 81 106 vvcurveto
        83 -34 50 -62 vhcurveto
        endchar
      </CharString>
      <CharString index="103">
        117 75 -55 -158 -157 -75 -61 -117 hvcurveto
        return
      </CharString>
      <CharString index="104">
        -33 263 hmoveto
        145 346 hlineto
        36 5 47 15 34 vhcurveto
        80 108 -469 -108 253 hlineto
        -18 25 callgsubr
        return
      </CharString>
      <CharString index="105">
        593 -69 callgsubr
        return
      </CharString>
      <CharString index="106">
        -67 314 -200 rmoveto
        145 583 hlineto
        18 callsubr
        -247 -108 208 hlineto
        39 callgsubr
        -590 vlineto
        return
      </CharString>
      <CharString index="107">
        -36 -29 37 94 95 29 34 36 36 28 -34 -95 -94 -28 -37 -36 hvcurveto
        return
      </CharString>
      <CharString index="108">
        -41 callgsubr
        24 callsubr
        return
      </CharString>
      <CharString index="109">
        566 rmoveto
        108 170 -93 42 -87 -180 72 -32 rlineto
        175 hmoveto
        107 170 -92 42 -88 -180 73 -32 rlineto
        endchar
      </CharString>
      <CharString index="110">
        -91 290 0 callsubr
        -235 -108 195 15 callsubr
        return
      </CharString>
      <CharString index="111">
        383 hlineto
        136 -72 52 -100 vhcurveto
        return
      </CharString>
      <CharString index="112">
        -320 61 210 rmoveto
        143 25 1 63 rlineto
        156 vlineto
        -22 callgsubr
        -244 vlineto
        return
      </CharString>
      <CharString index="113">
        25 101 rlineto
        9 -22 -34 9 -40 hhcurveto
        -128 -48 -83 -103 hvcurveto
        return
      </CharString>
      <CharString index="114">
        hmoveto
        9 callsubr
      </CharString>
      <CharString index="115">
        137 653 8 callsubr
      </CharString>
      <CharString index="116">
        -71 callsubr
        endchar
      </CharString>
      <CharString index="117">
        -287 146 233 -75 callgsubr
      </CharString>
      <CharString index="118">
        vlineto
        124 -46 75 -107 return
      </CharString>
      <CharString index="119">
        -495 hlineto
        endchar
      </CharString>
      <CharString index="120">
        -287 146 318 -90 callsubr
        return
      </CharString>
      <CharString index="121">
        122 4 71 31 66 vvcurveto
        42 -27 21 -49 11 vhcurveto
        return
      </CharString>
      <CharString index="122">
        -238 238 -160 rmoveto
        90 hlineto
        -212 870 rlineto
        -90 hlineto
        212 -870 rlineto
        endchar
      </CharString>
      <CharString index="123">
        -78 195 -80 rmoveto
        110 hlineto
        -8 return
      </CharString>
      <CharString index="124">
        -42 -80 rlineto
        -59 callgsubr
        return
      </CharString>
      <CharString index="125">
        rlineto
        110 vlineto
        -158 return
      </CharString>
      <CharString index="126">
        25 -21 -52 hvcurveto
        return
      </CharString>
      <CharString index="127">
        rlinecurve
        -4 hlineto
        return
      </CharString>
      <CharString index="128">
        -241 43 -152 rmoveto
        206 860 -206 -73 104 -714 -104 -73 hlineto
        endchar
      </CharString>
      <CharString index="129">
        rmoveto
        8 callgsubr
      </CharString>
      <CharString index="130">
        -269 rmoveto
        -36 -29 36 95 94 29 35 36 36 28 -35 -94 -95 -28 -36 -36 hvcurveto
        return
      </CharString>
      <CharString index="131">
        vmoveto
        27 callgsubr
      </CharString>
      <CharString index="132">
        -24 -11 -41 -52 vvcurveto
        -346 vlineto
        return
      </CharString>
      <CharString index="133">
        137 338 hlineto
        return
      </CharString>
      <CharString index="134">
        -102 callgsubr
        endchar
      </CharString>
      <CharString index="135">
        rlinecurve
        4 hlineto
        return
      </CharString>
      <CharString index="136">
        65 46 39 59 59 -46 38 -65 -66 -45 -38 -59 -59 45 -39 66 hvcurveto
        -1 return
      </CharString>
      <CharString index="137">
        rlineto
        -112 12 callgsubr
      </CharString>
      <CharString index="138">
        12 callsubr
        137 return
      </CharString>
      <CharString index="139">
        25 callsubr
        -14 vhcurveto
        -24 -101 rlineto
        -8 20 return
      </CharString>
      <CharString index="140">
        221 43 209 rmoveto
        714 88 -714 -88 hlineto
        endchar
      </CharString>
      <CharString index="141">
        105 108 -105 109 -25 -27 return
      </CharString>
      <CharString index="142">
        -43 callgsubr
        hvcurveto
        return
      </CharString>
      <CharString index="143">
        -80 vlineto
        -33 -23 -24 -12 -53 -8 rrcurveto
        -62 88 -285 return
      </CharString>
      <CharString index="144">
        53 callgsubr
        -39 return
      </CharString>
      <CharString index="145">
        hlineto
        63 64 -25 26 -105 -109 105 -107 rlineto
        return
      </CharString>
      <CharString index="146">
        42 19 callgsubr
        return
      </CharString>
      <CharString index="147">
        rlineto
        205 return
      </CharString>
      <CharString index="148">
        -9 67 -188 54 callgsubr
        149 hlineto
        return
      </CharString>
      <CharString index="149">
        137 653 -137 return
      </CharString>
      <CharString index="150">
        158 -8 18 callgsubr
        return
      </CharString>
      <CharString index="151">
        -39 768 rmoveto
        25 24 -62 66 rlineto
        return
      </CharString>
      <CharString index="152">
        46 callgsubr
        endchar
      </CharString>
      <CharString index="153">
        -108 hlineto
        return
      </CharString>
      <CharString index="154">
        rmoveto
        1 callsubr
        return
      </CharString>
      <CharString index="155">
        24 20 -18 -27 -29 -20 -17 -24 return
      </CharString>
      <CharString index="156">
        rmoveto
        88 36 -88 -36 hlineto
        endchar
      </CharString>
      <CharString index="157">
        -18 -43 callgsubr
        return
      </CharString>
      <CharString index="158">
        -100 rlineto
        44 hlineto
        return
      </CharString>
      <CharString index="159">
        28 38 38 return
      </CharString>
      <CharString index="160">
        rmoveto
        -166 return
      </CharString>
      <CharString index="161">
        rmoveto
        137 return
      </CharString>
</ttFont>
